solid ASCII
  facet normal 0.000000e+00 0.000000e+00 1.000000e+00
    outer loop
      vertex   -9.472497e+00 2.188000e+01 6.750000e+00
      vertex   -9.490074e+00 2.197923e+01 6.750000e+00
      vertex   -9.850000e+00 2.188000e+01 6.750000e+00
    endloop
  endfacet
  facet normal 0.000000e+00 0.000000e+00 1.000000e+00
    outer loop
      vertex   -9.850000e+00 2.188000e+01 6.750000e+00
      vertex   -9.490074e+00 2.197923e+01 6.750000e+00
      vertex   -9.498896e+00 2.207961e+01 6.750000e+00
    endloop
  endfacet
  facet normal 0.000000e+00 0.000000e+00 1.000000e+00
    outer loop
      vertex   -9.850000e+00 2.188000e+01 6.750000e+00
      vertex   -9.498896e+00 2.207961e+01 6.750000e+00
      vertex   -9.850000e+00 2.238000e+01 6.750000e+00
    endloop
  endfacet
  facet normal 0.000000e+00 0.000000e+00 1.000000e+00
    outer loop
      vertex   -9.850000e+00 2.238000e+01 6.750000e+00
      vertex   -9.498896e+00 2.207961e+01 6.750000e+00
      vertex   -9.498896e+00 2.218039e+01 6.750000e+00
    endloop
  endfacet
  facet normal 0.000000e+00 0.000000e+00 1.000000e+00
    outer loop
      vertex   -9.850000e+00 2.238000e+01 6.750000e+00
      vertex   -9.498896e+00 2.218039e+01 6.750000e+00
      vertex   -9.490074e+00 2.228077e+01 6.750000e+00
    endloop
  endfacet
  facet normal 0.000000e+00 -0.000000e+00 1.000000e+00
    outer loop
      vertex   -9.490074e+00 2.228077e+01 6.750000e+00
      vertex   -9.472497e+00 2.238000e+01 6.750000e+00
      vertex   -9.850000e+00 2.238000e+01 6.750000e+00
    endloop
  endfacet
  facet normal -0.000000e+00 0.000000e+00 1.000000e+00
    outer loop
      vertex   -7.227503e+00 2.238000e+01 6.750000e+00
      vertex   -7.209926e+00 2.228077e+01 6.750000e+00
      vertex   -6.850000e+00 2.238000e+01 6.750000e+00
    endloop
  endfacet
  facet normal 0.000000e+00 0.000000e+00 1.000000e+00
    outer loop
      vertex   -6.850000e+00 2.238000e+01 6.750000e+00
      vertex   -7.209926e+00 2.228077e+01 6.750000e+00
      vertex   -7.201104e+00 2.218039e+01 6.750000e+00
    endloop
  endfacet
  facet normal 0.000000e+00 0.000000e+00 1.000000e+00
    outer loop
      vertex   -6.850000e+00 2.238000e+01 6.750000e+00
      vertex   -7.201104e+00 2.218039e+01 6.750000e+00
      vertex   -7.201104e+00 2.207961e+01 6.750000e+00
    endloop
  endfacet
  facet normal 0.000000e+00 0.000000e+00 1.000000e+00
    outer loop
      vertex   -6.850000e+00 2.238000e+01 6.750000e+00
      vertex   -7.201104e+00 2.207961e+01 6.750000e+00
      vertex   -6.850000e+00 2.188000e+01 6.750000e+00
    endloop
  endfacet
  facet normal 0.000000e+00 0.000000e+00 1.000000e+00
    outer loop
      vertex   -6.850000e+00 2.188000e+01 6.750000e+00
      vertex   -7.201104e+00 2.207961e+01 6.750000e+00
      vertex   -7.209926e+00 2.197923e+01 6.750000e+00
    endloop
  endfacet
  facet normal 0.000000e+00 0.000000e+00 1.000000e+00
    outer loop
      vertex   -6.850000e+00 2.188000e+01 6.750000e+00
      vertex   -7.209926e+00 2.197923e+01 6.750000e+00
      vertex   -7.227503e+00 2.188000e+01 6.750000e+00
    endloop
  endfacet
  facet normal -0.000000e+00 -1.000000e+00 -0.000000e+00
    outer loop
      vertex   -9.472497e+00 2.188000e+01 6.750000e+00
      vertex   -9.850000e+00 2.188000e+01 6.750000e+00
      vertex   -9.472497e+00 2.188000e+01 4.450000e+00
    endloop
  endfacet
  facet normal 0.000000e+00 -1.000000e+00 0.000000e+00
    outer loop
      vertex   -9.472497e+00 2.188000e+01 4.450000e+00
      vertex   -9.850000e+00 2.188000e+01 6.750000e+00
      vertex   -9.850000e+00 2.188000e+01 4.450000e+00
    endloop
  endfacet
  facet normal -1.000000e+00 0.000000e+00 0.000000e+00
    outer loop
      vertex   -9.850000e+00 2.188000e+01 6.750000e+00
      vertex   -9.850000e+00 2.238000e+01 6.750000e+00
      vertex   -9.850000e+00 2.188000e+01 4.450000e+00
    endloop
  endfacet
  facet normal -1.000000e+00 0.000000e+00 0.000000e+00
    outer loop
      vertex   -9.850000e+00 2.188000e+01 4.450000e+00
      vertex   -9.850000e+00 2.238000e+01 6.750000e+00
      vertex   -9.850000e+00 2.238000e+01 4.450000e+00
    endloop
  endfacet
  facet normal -1.421199e-14 4.587500e-01 8.885654e-01
    outer loop
      vertex   -8.350000e+00 2.328000e+01 8.280009e+00
      vertex   -8.405531e+00 2.327860e+01 8.280733e+00
      vertex   -8.294469e+00 2.327860e+01 8.280733e+00
    endloop
  endfacet
  facet normal -1.423386e-14 4.560958e-01 8.899307e-01
    outer loop
      vertex   -8.294469e+00 2.327860e+01 8.280733e+00
      vertex   -8.405531e+00 2.327860e+01 8.280733e+00
      vertex   -8.238420e+00 2.327439e+01 8.282888e+00
    endloop
  endfacet
  facet normal 2.142877e-14 4.560958e-01 8.899307e-01
    outer loop
      vertex   -8.238420e+00 2.327439e+01 8.282888e+00
      vertex   -8.405531e+00 2.327860e+01 8.280733e+00
      vertex   -8.461580e+00 2.327439e+01 8.282888e+00
    endloop
  endfacet
  facet normal 2.139210e-14 4.514022e-01 8.923206e-01
    outer loop
      vertex   -8.238420e+00 2.327439e+01 8.282888e+00
      vertex   -8.461580e+00 2.327439e+01 8.282888e+00
      vertex   -8.125826e+00 2.325762e+01 8.291375e+00
    endloop
  endfacet
  facet normal -3.535384e-15 4.514022e-01 8.923206e-01
    outer loop
      vertex   -8.125826e+00 2.325762e+01 8.291375e+00
      vertex   -8.461580e+00 2.327439e+01 8.282888e+00
      vertex   -8.574174e+00 2.325762e+01 8.291375e+00
    endloop
  endfacet
  facet normal -3.547289e-15 4.454127e-01 8.953254e-01
    outer loop
      vertex   -8.125826e+00 2.325762e+01 8.291375e+00
      vertex   -8.574174e+00 2.325762e+01 8.291375e+00
      vertex   -8.014340e+00 2.322975e+01 8.305238e+00
    endloop
  endfacet
  facet normal -2.357180e-15 4.454127e-01 8.953254e-01
    outer loop
      vertex   -8.014340e+00 2.322975e+01 8.305238e+00
      vertex   -8.574174e+00 2.325762e+01 8.291375e+00
      vertex   -8.685660e+00 2.322975e+01 8.305238e+00
    endloop
  endfacet
  facet normal -2.333397e-15 4.409188e-01 8.975470e-01
    outer loop
      vertex   -8.014340e+00 2.322975e+01 8.305238e+00
      vertex   -8.685660e+00 2.322975e+01 8.305238e+00
      vertex   -7.959674e+00 2.321168e+01 8.314115e+00
    endloop
  endfacet
  facet normal 0.000000e+00 4.409188e-01 8.975470e-01
    outer loop
      vertex   -7.959674e+00 2.321168e+01 8.314115e+00
      vertex   -8.685660e+00 2.322975e+01 8.305238e+00
      vertex   -8.740326e+00 2.321168e+01 8.314115e+00
    endloop
  endfacet
  facet normal 0.000000e+00 4.377751e-01 8.990845e-01
    outer loop
      vertex   -7.959674e+00 2.321168e+01 8.314115e+00
      vertex   -8.740326e+00 2.321168e+01 8.314115e+00
      vertex   -7.906080e+00 2.319086e+01 8.324250e+00
    endloop
  endfacet
  facet normal -5.255305e-15 4.377751e-01 8.990845e-01
    outer loop
      vertex   -7.906080e+00 2.319086e+01 8.324250e+00
      vertex   -8.740326e+00 2.321168e+01 8.314115e+00
      vertex   -8.793920e+00 2.319086e+01 8.324250e+00
    endloop
  endfacet
  facet normal -5.175164e-15 4.310993e-01 9.023045e-01
    outer loop
      vertex   -7.906080e+00 2.319086e+01 8.324250e+00
      vertex   -8.793920e+00 2.319086e+01 8.324250e+00
      vertex   -7.802977e+00 2.314137e+01 8.347899e+00
    endloop
  endfacet
  facet normal 0.000000e+00 4.310993e-01 9.023045e-01
    outer loop
      vertex   -7.802977e+00 2.314137e+01 8.347899e+00
      vertex   -8.793920e+00 2.319086e+01 8.324250e+00
      vertex   -8.897023e+00 2.314137e+01 8.347899e+00
    endloop
  endfacet
  facet normal 0.000000e+00 4.209822e-01 9.070689e-01
    outer loop
      vertex   -7.802977e+00 2.314137e+01 8.347899e+00
      vertex   -8.897023e+00 2.314137e+01 8.347899e+00
      vertex   -7.706421e+00 2.308270e+01 8.375127e+00
    endloop
  endfacet
  facet normal 0.000000e+00 4.209822e-01 9.070689e-01
    outer loop
      vertex   -7.706421e+00 2.308270e+01 8.375127e+00
      vertex   -8.897023e+00 2.314137e+01 8.347899e+00
      vertex   -8.993579e+00 2.308270e+01 8.375127e+00
    endloop
  endfacet
  facet normal 0.000000e+00 4.096509e-01 9.122424e-01
    outer loop
      vertex   -7.706421e+00 2.308270e+01 8.375127e+00
      vertex   -8.993579e+00 2.308270e+01 8.375127e+00
      vertex   -9.082290e+00 2.301652e+01 8.404845e+00
    endloop
  endfacet
  facet normal -1.004263e-15 3.965852e-01 9.179979e-01
    outer loop
      vertex   -9.161885e+00 2.294445e+01 8.435978e+00
      vertex   -7.538115e+00 2.294445e+01 8.435978e+00
      vertex   -9.082290e+00 2.301652e+01 8.404845e+00
    endloop
  endfacet
  facet normal -1.924039e-15 3.965852e-01 9.179979e-01
    outer loop
      vertex   -9.082290e+00 2.301652e+01 8.404845e+00
      vertex   -7.538115e+00 2.294445e+01 8.435978e+00
      vertex   -7.617710e+00 2.301652e+01 8.404845e+00
    endloop
  endfacet
  facet normal -1.987427e-15 4.096509e-01 9.122424e-01
    outer loop
      vertex   -9.082290e+00 2.301652e+01 8.404845e+00
      vertex   -7.617710e+00 2.301652e+01 8.404845e+00
      vertex   -7.706421e+00 2.308270e+01 8.375127e+00
    endloop
  endfacet
  facet normal -1.011156e-15 3.816700e-01 9.242986e-01
    outer loop
      vertex   -7.538115e+00 2.294445e+01 8.435978e+00
      vertex   -9.161885e+00 2.294445e+01 8.435978e+00
      vertex   -7.465790e+00 2.286504e+01 8.468771e+00
    endloop
  endfacet
  facet normal 0.000000e+00 3.816700e-01 9.242986e-01
    outer loop
      vertex   -7.465790e+00 2.286504e+01 8.468771e+00
      vertex   -9.161885e+00 2.294445e+01 8.435978e+00
      vertex   -9.234210e+00 2.286504e+01 8.468771e+00
    endloop
  endfacet
  facet normal 0.000000e+00 3.659878e-01 9.306196e-01
    outer loop
      vertex   -7.465790e+00 2.286504e+01 8.468771e+00
      vertex   -9.234210e+00 2.286504e+01 8.468771e+00
      vertex   -9.300086e+00 2.277746e+01 8.503214e+00
    endloop
  endfacet
  facet normal 8.254911e-16 3.491960e-01 9.370497e-01
    outer loop
      vertex   -9.358209e+00 2.268286e+01 8.538465e+00
      vertex   -7.341791e+00 2.268286e+01 8.538465e+00
      vertex   -9.300086e+00 2.277746e+01 8.503214e+00
    endloop
  endfacet
  facet normal -0.000000e+00 3.491960e-01 9.370497e-01
    outer loop
      vertex   -9.300086e+00 2.277746e+01 8.503214e+00
      vertex   -7.341791e+00 2.268286e+01 8.538465e+00
      vertex   -7.399914e+00 2.277746e+01 8.503214e+00
    endloop
  endfacet
  facet normal -0.000000e+00 3.659878e-01 9.306196e-01
    outer loop
      vertex   -9.300086e+00 2.277746e+01 8.503214e+00
      vertex   -7.399914e+00 2.277746e+01 8.503214e+00
      vertex   -7.465790e+00 2.286504e+01 8.468771e+00
    endloop
  endfacet
  facet normal 8.313425e-16 3.308257e-01 9.436919e-01
    outer loop
      vertex   -9.358209e+00 2.268286e+01 8.538465e+00
      vertex   -9.407272e+00 2.258241e+01 8.573682e+00
      vertex   -7.341791e+00 2.268286e+01 8.538465e+00
    endloop
  endfacet
  facet normal 0.000000e+00 3.308257e-01 9.436919e-01
    outer loop
      vertex   -7.341791e+00 2.268286e+01 8.538465e+00
      vertex   -9.407272e+00 2.258241e+01 8.573682e+00
      vertex   -7.292728e+00 2.258241e+01 8.573682e+00
    endloop
  endfacet
  facet normal 0.000000e+00 3.105718e-01 9.505499e-01
    outer loop
      vertex   -7.292728e+00 2.258241e+01 8.573682e+00
      vertex   -9.407272e+00 2.258241e+01 8.573682e+00
      vertex   -7.253856e+00 2.247732e+01 8.608018e+00
    endloop
  endfacet
  facet normal -2.669100e-16 3.105718e-01 9.505499e-01
    outer loop
      vertex   -7.253856e+00 2.247732e+01 8.608018e+00
      vertex   -9.407272e+00 2.258241e+01 8.573682e+00
      vertex   -9.446144e+00 2.247732e+01 8.608018e+00
    endloop
  endfacet
  facet normal -3.047123e-16 2.904197e-01 9.568994e-01
    outer loop
      vertex   -7.253856e+00 2.247732e+01 8.608018e+00
      vertex   -9.446144e+00 2.247732e+01 8.608018e+00
      vertex   -9.474538e+00 2.236924e+01 8.640820e+00
    endloop
  endfacet
  facet normal -0.000000e+00 2.706877e-01 9.626672e-01
    outer loop
      vertex   -9.492430e+00 2.225997e+01 8.671546e+00
      vertex   -7.207570e+00 2.225997e+01 8.671546e+00
      vertex   -9.474538e+00 2.236924e+01 8.640820e+00
    endloop
  endfacet
  facet normal -1.187917e-15 2.706877e-01 9.626672e-01
    outer loop
      vertex   -9.474538e+00 2.236924e+01 8.640820e+00
      vertex   -7.207570e+00 2.225997e+01 8.671546e+00
      vertex   -7.225462e+00 2.236924e+01 8.640820e+00
    endloop
  endfacet
  facet normal -1.214531e-15 2.904197e-01 9.568994e-01
    outer loop
      vertex   -9.474538e+00 2.236924e+01 8.640820e+00
      vertex   -7.225462e+00 2.236924e+01 8.640820e+00
      vertex   -7.253856e+00 2.247732e+01 8.608018e+00
    endloop
  endfacet
  facet normal -0.000000e+00 2.504070e-01 9.681407e-01
    outer loop
      vertex   -9.492430e+00 2.225997e+01 8.671546e+00
      vertex   -9.499793e+00 2.215129e+01 8.699654e+00
      vertex   -7.207570e+00 2.225997e+01 8.671546e+00
    endloop
  endfacet
  facet normal -1.520504e-15 2.504070e-01 9.681407e-01
    outer loop
      vertex   -7.207570e+00 2.225997e+01 8.671546e+00
      vertex   -9.499793e+00 2.215129e+01 8.699654e+00
      vertex   -7.200207e+00 2.215129e+01 8.699654e+00
    endloop
  endfacet
  facet normal -1.458927e-15 2.287956e-01 9.734745e-01
    outer loop
      vertex   -7.200207e+00 2.215129e+01 8.699654e+00
      vertex   -9.499793e+00 2.215129e+01 8.699654e+00
      vertex   -7.203444e+00 2.204279e+01 8.725154e+00
    endloop
  endfacet
  facet normal 0.000000e+00 2.287956e-01 9.734745e-01
    outer loop
      vertex   -7.203444e+00 2.204279e+01 8.725154e+00
      vertex   -9.499793e+00 2.215129e+01 8.699654e+00
      vertex   -9.496556e+00 2.204279e+01 8.725154e+00
    endloop
  endfacet
  facet normal 0.000000e+00 2.078552e-01 9.781596e-01
    outer loop
      vertex   -7.203444e+00 2.204279e+01 8.725154e+00
      vertex   -9.496556e+00 2.204279e+01 8.725154e+00
      vertex   -7.217507e+00 2.193190e+01 8.748719e+00
    endloop
  endfacet
  facet normal -9.780855e-16 2.078552e-01 9.781596e-01
    outer loop
      vertex   -7.217507e+00 2.193190e+01 8.748719e+00
      vertex   -9.496556e+00 2.204279e+01 8.725154e+00
      vertex   -9.482493e+00 2.193190e+01 8.748719e+00
    endloop
  endfacet
  facet normal -8.833378e-16 1.877201e-01 9.822226e-01
    outer loop
      vertex   -7.217507e+00 2.193190e+01 8.748719e+00
      vertex   -9.482493e+00 2.193190e+01 8.748719e+00
      vertex   -9.457380e+00 2.182063e+01 8.769985e+00
    endloop
  endfacet
  facet normal -0.000000e+00 1.672300e-01 9.859179e-01
    outer loop
      vertex   -9.420994e+00 2.171113e+01 8.788558e+00
      vertex   -7.279006e+00 2.171113e+01 8.788558e+00
      vertex   -9.457380e+00 2.182063e+01 8.769985e+00
    endloop
  endfacet
  facet normal 5.365100e-16 1.672300e-01 9.859179e-01
    outer loop
      vertex   -9.457380e+00 2.182063e+01 8.769985e+00
      vertex   -7.279006e+00 2.171113e+01 8.788558e+00
      vertex   -7.242620e+00 2.182063e+01 8.769985e+00
    endloop
  endfacet
  facet normal 6.022468e-16 1.877201e-01 9.822226e-01
    outer loop
      vertex   -9.457380e+00 2.182063e+01 8.769985e+00
      vertex   -7.242620e+00 2.182063e+01 8.769985e+00
      vertex   -7.217507e+00 2.193190e+01 8.748719e+00
    endloop
  endfacet
  facet normal -0.000000e+00 1.460054e-01 9.892838e-01
    outer loop
      vertex   -9.420994e+00 2.171113e+01 8.788558e+00
      vertex   -9.373272e+00 2.160551e+01 8.804146e+00
      vertex   -7.279006e+00 2.171113e+01 8.788558e+00
    endloop
  endfacet
  facet normal 1.112501e-15 1.460054e-01 9.892838e-01
    outer loop
      vertex   -7.279006e+00 2.171113e+01 8.788558e+00
      vertex   -9.373272e+00 2.160551e+01 8.804146e+00
      vertex   -7.326728e+00 2.160551e+01 8.804146e+00
    endloop
  endfacet
  facet normal 1.080557e-15 1.264709e-01 9.919703e-01
    outer loop
      vertex   -7.326728e+00 2.160551e+01 8.804146e+00
      vertex   -9.373272e+00 2.160551e+01 8.804146e+00
      vertex   -7.384738e+00 2.150548e+01 8.816899e+00
    endloop
  endfacet
  facet normal 2.327426e-16 1.264709e-01 9.919703e-01
    outer loop
      vertex   -7.384738e+00 2.150548e+01 8.816899e+00
      vertex   -9.373272e+00 2.160551e+01 8.804146e+00
      vertex   -9.315262e+00 2.150548e+01 8.816899e+00
    endloop
  endfacet
  facet normal 1.999359e-16 1.086440e-01 9.940807e-01
    outer loop
      vertex   -7.384738e+00 2.150548e+01 8.816899e+00
      vertex   -9.315262e+00 2.150548e+01 8.816899e+00
      vertex   -9.248491e+00 2.141258e+01 8.827053e+00
    endloop
  endfacet
  facet normal 1.072670e-15 9.205311e-02 9.957541e-01
    outer loop
      vertex   -9.174491e+00 2.132832e+01 8.834842e+00
      vertex   -7.525509e+00 2.132832e+01 8.834842e+00
      vertex   -9.248491e+00 2.141258e+01 8.827053e+00
    endloop
  endfacet
  facet normal -1.968651e-15 9.205311e-02 9.957541e-01
    outer loop
      vertex   -9.248491e+00 2.141258e+01 8.827053e+00
      vertex   -7.525509e+00 2.132832e+01 8.834842e+00
      vertex   -7.451509e+00 2.141258e+01 8.827053e+00
    endloop
  endfacet
  facet normal -1.965342e-15 1.086440e-01 9.940807e-01
    outer loop
      vertex   -9.248491e+00 2.141258e+01 8.827053e+00
      vertex   -7.451509e+00 2.141258e+01 8.827053e+00
      vertex   -7.384738e+00 2.150548e+01 8.816899e+00
    endloop
  endfacet
  facet normal 1.074095e-15 7.640469e-02 9.970769e-01
    outer loop
      vertex   -7.525509e+00 2.132832e+01 8.834842e+00
      vertex   -9.174491e+00 2.132832e+01 8.834842e+00
      vertex   -7.607070e+00 2.125238e+01 8.840661e+00
    endloop
  endfacet
  facet normal 1.826848e-16 7.640469e-02 9.970769e-01
    outer loop
      vertex   -7.607070e+00 2.125238e+01 8.840661e+00
      vertex   -9.174491e+00 2.132832e+01 8.834842e+00
      vertex   -9.092930e+00 2.125238e+01 8.840661e+00
    endloop
  endfacet
  facet normal 1.498124e-16 6.265639e-02 9.980352e-01
    outer loop
      vertex   -7.607070e+00 2.125238e+01 8.840661e+00
      vertex   -9.092930e+00 2.125238e+01 8.840661e+00
      vertex   -9.002064e+00 2.118311e+01 8.845010e+00
    endloop
  endfacet
  facet normal -0.000000e+00 5.065102e-02 9.987164e-01
    outer loop
      vertex   -8.903309e+00 2.112208e+01 8.848105e+00
      vertex   -7.796691e+00 2.112208e+01 8.848105e+00
      vertex   -9.002064e+00 2.118311e+01 8.845010e+00
    endloop
  endfacet
  facet normal -2.996679e-15 5.065102e-02 9.987164e-01
    outer loop
      vertex   -9.002064e+00 2.118311e+01 8.845010e+00
      vertex   -7.796691e+00 2.112208e+01 8.848105e+00
      vertex   -7.697936e+00 2.118311e+01 8.845010e+00
    endloop
  endfacet
  facet normal -3.060233e-15 6.265639e-02 9.980352e-01
    outer loop
      vertex   -9.002064e+00 2.118311e+01 8.845010e+00
      vertex   -7.697936e+00 2.118311e+01 8.845010e+00
      vertex   -7.607070e+00 2.125238e+01 8.840661e+00
    endloop
  endfacet
  facet normal 0.000000e+00 4.010839e-02 9.991953e-01
    outer loop
      vertex   -7.796691e+00 2.112208e+01 8.848105e+00
      vertex   -8.903309e+00 2.112208e+01 8.848105e+00
      vertex   -7.901858e+00 2.107091e+01 8.850159e+00
    endloop
  endfacet
  facet normal 1.589827e-16 4.010839e-02 9.991953e-01
    outer loop
      vertex   -7.901858e+00 2.107091e+01 8.850159e+00
      vertex   -8.903309e+00 2.112208e+01 8.848105e+00
      vertex   -8.798142e+00 2.107091e+01 8.850159e+00
    endloop
  endfacet
  facet normal 1.263125e-16 3.186632e-02 9.994921e-01
    outer loop
      vertex   -7.901858e+00 2.107091e+01 8.850159e+00
      vertex   -8.798142e+00 2.107091e+01 8.850159e+00
      vertex   -8.011869e+00 2.103100e+01 8.851431e+00
    endloop
  endfacet
  facet normal 0.000000e+00 3.186632e-02 9.994921e-01
    outer loop
      vertex   -8.011869e+00 2.103100e+01 8.851431e+00
      vertex   -8.798142e+00 2.107091e+01 8.850159e+00
      vertex   -8.688131e+00 2.103100e+01 8.851431e+00
    endloop
  endfacet
  facet normal 0.000000e+00 2.557665e-02 9.996729e-01
    outer loop
      vertex   -8.011869e+00 2.103100e+01 8.851431e+00
      vertex   -8.688131e+00 2.103100e+01 8.851431e+00
      vertex   -8.124686e+00 2.100261e+01 8.852158e+00
    endloop
  endfacet
  facet normal 0.000000e+00 2.557665e-02 9.996729e-01
    outer loop
      vertex   -8.124686e+00 2.100261e+01 8.852158e+00
      vertex   -8.688131e+00 2.103100e+01 8.851431e+00
      vertex   -8.575314e+00 2.100261e+01 8.852158e+00
    endloop
  endfacet
  facet normal 0.000000e+00 1.932419e-02 9.998133e-01
    outer loop
      vertex   -8.124686e+00 2.100261e+01 8.852158e+00
      vertex   -8.575314e+00 2.100261e+01 8.852158e+00
      vertex   -8.238124e+00 2.098564e+01 8.852486e+00
    endloop
  endfacet
  facet normal 0.000000e+00 1.932419e-02 9.998133e-01
    outer loop
      vertex   -8.238124e+00 2.098564e+01 8.852486e+00
      vertex   -8.575314e+00 2.100261e+01 8.852158e+00
      vertex   -8.461876e+00 2.098564e+01 8.852486e+00
    endloop
  endfacet
  facet normal 0.000000e+00 1.359468e-02 9.999076e-01
    outer loop
      vertex   -8.238124e+00 2.098564e+01 8.852486e+00
      vertex   -8.461876e+00 2.098564e+01 8.852486e+00
      vertex   -8.350000e+00 2.098000e+01 8.852563e+00
    endloop
  endfacet
  facet normal -0.000000e+00 -1.000000e+00 -0.000000e+00
    outer loop
      vertex   -6.850000e+00 2.188000e+01 6.750000e+00
      vertex   -7.227503e+00 2.188000e+01 6.750000e+00
      vertex   -6.850000e+00 2.188000e+01 4.450000e+00
    endloop
  endfacet
  facet normal 0.000000e+00 -1.000000e+00 0.000000e+00
    outer loop
      vertex   -6.850000e+00 2.188000e+01 4.450000e+00
      vertex   -7.227503e+00 2.188000e+01 6.750000e+00
      vertex   -7.227503e+00 2.188000e+01 4.450000e+00
    endloop
  endfacet
  facet normal 1.000000e+00 0.000000e+00 0.000000e+00
    outer loop
      vertex   -6.850000e+00 2.238000e+01 6.750000e+00
      vertex   -6.850000e+00 2.188000e+01 6.750000e+00
      vertex   -6.850000e+00 2.238000e+01 4.450000e+00
    endloop
  endfacet
  facet normal 1.000000e+00 0.000000e+00 0.000000e+00
    outer loop
      vertex   -6.850000e+00 2.238000e+01 4.450000e+00
      vertex   -6.850000e+00 2.188000e+01 6.750000e+00
      vertex   -6.850000e+00 2.188000e+01 4.450000e+00
    endloop
  endfacet
  facet normal -0.000000e+00 1.000000e+00 0.000000e+00
    outer loop
      vertex   -7.227503e+00 2.238000e+01 6.750000e+00
      vertex   -6.850000e+00 2.238000e+01 6.750000e+00
      vertex   -7.227503e+00 2.238000e+01 4.450000e+00
    endloop
  endfacet
  facet normal 0.000000e+00 1.000000e+00 0.000000e+00
    outer loop
      vertex   -7.227503e+00 2.238000e+01 4.450000e+00
      vertex   -6.850000e+00 2.238000e+01 6.750000e+00
      vertex   -6.850000e+00 2.238000e+01 4.450000e+00
    endloop
  endfacet
  facet normal -0.000000e+00 1.000000e+00 0.000000e+00
    outer loop
      vertex   -9.850000e+00 2.238000e+01 6.750000e+00
      vertex   -9.472497e+00 2.238000e+01 6.750000e+00
      vertex   -9.850000e+00 2.238000e+01 4.450000e+00
    endloop
  endfacet
  facet normal 0.000000e+00 1.000000e+00 0.000000e+00
    outer loop
      vertex   -9.850000e+00 2.238000e+01 4.450000e+00
      vertex   -9.472497e+00 2.238000e+01 6.750000e+00
      vertex   -9.472497e+00 2.238000e+01 4.450000e+00
    endloop
  endfacet
  facet normal -2.526965e-02 9.996807e-01 0.000000e+00
    outer loop
      vertex   -8.405531e+00 2.327860e+01 8.280733e+00
      vertex   -8.350000e+00 2.328000e+01 8.280009e+00
      vertex   -8.350000e+00 2.328000e+01 6.651281e+00
    endloop
  endfacet
  facet normal 2.526965e-02 9.996807e-01 -0.000000e+00
    outer loop
      vertex   -8.350000e+00 2.328000e+01 6.651281e+00
      vertex   -8.350000e+00 2.328000e+01 8.280009e+00
      vertex   -8.294469e+00 2.327860e+01 8.280733e+00
    endloop
  endfacet
  facet normal 5.217728e-02 9.986374e-01 -9.178950e-04
    outer loop
      vertex   -8.350000e+00 2.328000e+01 6.651281e+00
      vertex   -8.294469e+00 2.327860e+01 8.280733e+00
      vertex   -8.230156e+00 2.327374e+01 6.651281e+00
    endloop
  endfacet
  facet normal 7.481067e-02 9.971978e-01 -2.027616e-05
    outer loop
      vertex   -8.230156e+00 2.327374e+01 6.651281e+00
      vertex   -8.294469e+00 2.327860e+01 8.280733e+00
      vertex   -8.238420e+00 2.327439e+01 8.282888e+00
    endloop
  endfacet
  facet normal 1.473390e-01 9.890860e-01 3.503358e-04
    outer loop
      vertex   -8.230156e+00 2.327374e+01 6.651281e+00
      vertex   -8.238420e+00 2.327439e+01 8.282888e+00
      vertex   -8.125826e+00 2.325762e+01 8.291375e+00
    endloop
  endfacet
  facet normal 1.562775e-01 9.877132e-01 -2.317563e-04
    outer loop
      vertex   -8.230156e+00 2.327374e+01 6.651281e+00
      vertex   -8.125826e+00 2.325762e+01 8.291375e+00
      vertex   -8.110902e+00 2.325487e+01 6.651281e+00
    endloop
  endfacet
  facet normal 2.424324e-01 9.701681e-01 5.816285e-04
    outer loop
      vertex   -8.110902e+00 2.325487e+01 6.651281e+00
      vertex   -8.125826e+00 2.325762e+01 8.291375e+00
      vertex   -8.014340e+00 2.322975e+01 8.305238e+00
    endloop
  endfacet
  facet normal 2.588190e-01 9.659257e-01 -4.394951e-04
    outer loop
      vertex   -8.110902e+00 2.325487e+01 6.651281e+00
      vertex   -8.014340e+00 2.322975e+01 8.305238e+00
      vertex   -7.994630e+00 2.322371e+01 6.651281e+00
    endloop
  endfacet
  facet normal 3.138076e-01 9.494865e-01 2.757386e-04
    outer loop
      vertex   -7.994630e+00 2.322371e+01 6.651281e+00
      vertex   -8.014340e+00 2.322975e+01 8.305238e+00
      vertex   -7.959674e+00 2.321168e+01 8.314115e+00
    endloop
  endfacet
  facet normal 3.583678e-01 9.335801e-01 -7.761530e-04
    outer loop
      vertex   -7.994630e+00 2.322371e+01 6.651281e+00
      vertex   -7.959674e+00 2.321168e+01 8.314115e+00
      vertex   -7.882253e+00 2.318058e+01 6.651281e+00
    endloop
  endfacet
  facet normal 3.621234e-01 9.321300e-01 -5.741721e-04
    outer loop
      vertex   -7.882253e+00 2.318058e+01 6.651281e+00
      vertex   -7.959674e+00 2.321168e+01 8.314115e+00
      vertex   -7.906080e+00 2.319086e+01 8.324250e+00
    endloop
  endfacet
  facet normal 4.326808e-01 9.015470e-01 6.187967e-04
    outer loop
      vertex   -7.882253e+00 2.318058e+01 6.651281e+00
      vertex   -7.906080e+00 2.319086e+01 8.324250e+00
      vertex   -7.802977e+00 2.314137e+01 8.347899e+00
    endloop
  endfacet
  facet normal 4.539904e-01 8.910064e-01 -6.205180e-04
    outer loop
      vertex   -7.882253e+00 2.318058e+01 6.651281e+00
      vertex   -7.802977e+00 2.314137e+01 8.347899e+00
      vertex   -7.775000e+00 2.312593e+01 6.651281e+00
    endloop
  endfacet
  facet normal 5.190907e-01 8.547188e-01 7.831549e-04
    outer loop
      vertex   -7.775000e+00 2.312593e+01 6.651281e+00
      vertex   -7.802977e+00 2.314137e+01 8.347899e+00
      vertex   -7.706421e+00 2.308270e+01 8.375127e+00
    endloop
  endfacet
  facet normal 5.446389e-01 8.386704e-01 -6.356623e-04
    outer loop
      vertex   -7.775000e+00 2.312593e+01 6.651281e+00
      vertex   -7.706421e+00 2.308270e+01 8.375127e+00
      vertex   -7.674047e+00 2.306037e+01 6.651281e+00
    endloop
  endfacet
  facet normal 5.977700e-01 8.016672e-01 8.414882e-04
    outer loop
      vertex   -7.674047e+00 2.306037e+01 6.651281e+00
      vertex   -7.706421e+00 2.308270e+01 8.375127e+00
      vertex   -7.617710e+00 2.301652e+01 8.404845e+00
    endloop
  endfacet
  facet normal 6.293202e-01 7.771457e-01 -7.852918e-04
    outer loop
      vertex   -7.674047e+00 2.306037e+01 6.651281e+00
      vertex   -7.617710e+00 2.301652e+01 8.404845e+00
      vertex   -7.580500e+00 2.298462e+01 6.651281e+00
    endloop
  endfacet
  facet normal 6.710152e-01 7.414432e-01 7.490456e-04
    outer loop
      vertex   -7.580500e+00 2.298462e+01 6.651281e+00
      vertex   -7.617710e+00 2.301652e+01 8.404845e+00
      vertex   -7.538115e+00 2.294445e+01 8.435978e+00
    endloop
  endfacet
  facet normal 7.071065e-01 7.071065e-01 -8.807833e-04
    outer loop
      vertex   -7.580500e+00 2.298462e+01 6.651281e+00
      vertex   -7.538115e+00 2.294445e+01 8.435978e+00
      vertex   -7.495383e+00 2.289950e+01 6.651281e+00
    endloop
  endfacet
  facet normal 7.391883e-01 6.734984e-01 7.339116e-04
    outer loop
      vertex   -7.495383e+00 2.289950e+01 6.651281e+00
      vertex   -7.538115e+00 2.294445e+01 8.435978e+00
      vertex   -7.465790e+00 2.286504e+01 8.468771e+00
    endloop
  endfacet
  facet normal 7.771458e-01 6.293202e-01 -7.217690e-04
    outer loop
      vertex   -7.495383e+00 2.289950e+01 6.651281e+00
      vertex   -7.465790e+00 2.286504e+01 8.468771e+00
      vertex   -7.419630e+00 2.280595e+01 6.651281e+00
    endloop
  endfacet
  facet normal 7.990238e-01 6.012989e-01 7.448550e-04
    outer loop
      vertex   -7.419630e+00 2.280595e+01 6.651281e+00
      vertex   -7.465790e+00 2.286504e+01 8.468771e+00
      vertex   -7.399914e+00 2.277746e+01 8.503214e+00
    endloop
  endfacet
  facet normal 8.386704e-01 5.446390e-01 -5.490272e-04
    outer loop
      vertex   -7.419630e+00 2.280595e+01 6.651281e+00
      vertex   -7.399914e+00 2.277746e+01 8.503214e+00
      vertex   -7.354071e+00 2.270500e+01 6.651281e+00
    endloop
  endfacet
  facet normal 8.519181e-01 5.236748e-01 5.991503e-04
    outer loop
      vertex   -7.354071e+00 2.270500e+01 6.651281e+00
      vertex   -7.399914e+00 2.277746e+01 8.503214e+00
      vertex   -7.341791e+00 2.268286e+01 8.538465e+00
    endloop
  endfacet
  facet normal 8.910064e-01 4.539904e-01 -4.725486e-04
    outer loop
      vertex   -7.354071e+00 2.270500e+01 6.651281e+00
      vertex   -7.341791e+00 2.268286e+01 8.538465e+00
      vertex   -7.299423e+00 2.259775e+01 6.651281e+00
    endloop
  endfacet
  facet normal 8.985016e-01 4.389701e-01 3.731836e-04
    outer loop
      vertex   -7.299423e+00 2.259775e+01 6.651281e+00
      vertex   -7.341791e+00 2.268286e+01 8.538465e+00
      vertex   -7.292728e+00 2.258241e+01 8.573682e+00
    endloop
  endfacet
  facet normal 9.335804e-01 3.583679e-01 -3.920604e-04
    outer loop
      vertex   -7.299423e+00 2.259775e+01 6.651281e+00
      vertex   -7.292728e+00 2.258241e+01 8.573682e+00
      vertex   -7.256285e+00 2.248537e+01 6.651281e+00
    endloop
  endfacet
  facet normal 9.378689e-01 3.469897e-01 2.635939e-04
    outer loop
      vertex   -7.256285e+00 2.248537e+01 6.651281e+00
      vertex   -7.292728e+00 2.258241e+01 8.573682e+00
      vertex   -7.253856e+00 2.247732e+01 8.608018e+00
    endloop
  endfacet
  facet normal 9.641038e-01 2.655256e-01 -1.041480e-04
    outer loop
      vertex   -7.256285e+00 2.248537e+01 6.651281e+00
      vertex   -7.253856e+00 2.247732e+01 8.608018e+00
      vertex   -7.227503e+00 2.238000e+01 4.450000e+00
    endloop
  endfacet
  facet normal 9.652354e-01 2.613822e-01 -0.000000e+00
    outer loop
      vertex   -7.227503e+00 2.238000e+01 4.450000e+00
      vertex   -7.253856e+00 2.247732e+01 8.608018e+00
      vertex   -7.227503e+00 2.238000e+01 6.750000e+00
    endloop
  endfacet
  facet normal 9.671490e-01 2.542100e-01 4.028075e-04
    outer loop
      vertex   -7.227503e+00 2.238000e+01 6.750000e+00
      vertex   -7.253856e+00 2.247732e+01 8.608018e+00
      vertex   -7.225462e+00 2.236924e+01 8.640820e+00
    endloop
  endfacet
  facet normal 9.846720e-01 1.744162e-01 -7.020983e-05
    outer loop
      vertex   -7.227503e+00 2.238000e+01 6.750000e+00
      vertex   -7.225462e+00 2.236924e+01 8.640820e+00
      vertex   -7.209926e+00 2.228077e+01 6.750000e+00
    endloop
  endfacet
  facet normal 9.868350e-01 1.617297e-01 5.411372e-04
    outer loop
      vertex   -7.209926e+00 2.228077e+01 6.750000e+00
      vertex   -7.225462e+00 2.236924e+01 8.640820e+00
      vertex   -7.207570e+00 2.225997e+01 8.671546e+00
    endloop
  endfacet
  facet normal 9.961606e-01 8.754421e-02 -2.735535e-04
    outer loop
      vertex   -7.209926e+00 2.228077e+01 6.750000e+00
      vertex   -7.207570e+00 2.225997e+01 8.671546e+00
      vertex   -7.201104e+00 2.218039e+01 6.750000e+00
    endloop
  endfacet
  facet normal 9.977026e-01 6.774343e-02 5.516744e-04
    outer loop
      vertex   -7.201104e+00 2.218039e+01 6.750000e+00
      vertex   -7.207570e+00 2.225997e+01 8.671546e+00
      vertex   -7.200207e+00 2.215129e+01 8.699654e+00
    endloop
  endfacet
  facet normal 9.999999e-01 0.000000e+00 -4.602528e-04
    outer loop
      vertex   -7.201104e+00 2.218039e+01 6.750000e+00
      vertex   -7.200207e+00 2.215129e+01 8.699654e+00
      vertex   -7.201104e+00 2.207961e+01 6.750000e+00
    endloop
  endfacet
  facet normal 9.995595e-01 -2.967107e-02 6.308190e-04
    outer loop
      vertex   -7.201104e+00 2.207961e+01 6.750000e+00
      vertex   -7.200207e+00 2.215129e+01 8.699654e+00
      vertex   -7.203444e+00 2.204279e+01 8.725154e+00
    endloop
  endfacet
  facet normal 9.961605e-01 -8.754420e-02 -4.520625e-04
    outer loop
      vertex   -7.201104e+00 2.207961e+01 6.750000e+00
      vertex   -7.203444e+00 2.204279e+01 8.725154e+00
      vertex   -7.209926e+00 2.197923e+01 6.750000e+00
    endloop
  endfacet
  facet normal 9.920748e-01 -1.256458e-01 7.875525e-04
    outer loop
      vertex   -7.209926e+00 2.197923e+01 6.750000e+00
      vertex   -7.203444e+00 2.204279e+01 8.725154e+00
      vertex   -7.217507e+00 2.193190e+01 8.748719e+00
    endloop
  endfacet
  facet normal 9.846719e-01 -1.744162e-01 -3.953573e-04
    outer loop
      vertex   -7.209926e+00 2.197923e+01 6.750000e+00
      vertex   -7.217507e+00 2.193190e+01 8.748719e+00
      vertex   -7.227503e+00 2.188000e+01 6.750000e+00
    endloop
  endfacet
  facet normal 9.754986e-01 -2.200041e-01 8.342908e-04
    outer loop
      vertex   -7.227503e+00 2.188000e+01 6.750000e+00
      vertex   -7.217507e+00 2.193190e+01 8.748719e+00
      vertex   -7.242620e+00 2.182063e+01 8.769985e+00
    endloop
  endfacet
  facet normal 9.647805e-01 -2.630557e-01 -5.112888e-04
    outer loop
      vertex   -7.227503e+00 2.188000e+01 6.750000e+00
      vertex   -7.242620e+00 2.182063e+01 8.769985e+00
      vertex   -7.256285e+00 2.177463e+01 6.651281e+00
    endloop
  endfacet
  facet normal 9.490157e-01 -3.152281e-01 7.230859e-04
    outer loop
      vertex   -7.256285e+00 2.177463e+01 6.651281e+00
      vertex   -7.242620e+00 2.182063e+01 8.769985e+00
      vertex   -7.279006e+00 2.171113e+01 8.788558e+00
    endloop
  endfacet
  facet normal 9.335802e-01 -3.583679e-01 -7.226952e-04
    outer loop
      vertex   -7.256285e+00 2.177463e+01 6.651281e+00
      vertex   -7.279006e+00 2.171113e+01 8.788558e+00
      vertex   -7.299423e+00 2.166225e+01 6.651281e+00
    endloop
  endfacet
  facet normal 9.113355e-01 -4.116638e-01 7.086617e-04
    outer loop
      vertex   -7.299423e+00 2.166225e+01 6.651281e+00
      vertex   -7.279006e+00 2.171113e+01 8.788558e+00
      vertex   -7.326728e+00 2.160551e+01 8.804146e+00
    endloop
  endfacet
  facet normal 8.910063e-01 -4.539904e-01 -6.647406e-04
    outer loop
      vertex   -7.299423e+00 2.166225e+01 6.651281e+00
      vertex   -7.326728e+00 2.160551e+01 8.804146e+00
      vertex   -7.354071e+00 2.155500e+01 6.651281e+00
    endloop
  endfacet
  facet normal 8.650955e-01 -5.016066e-01 7.815446e-04
    outer loop
      vertex   -7.354071e+00 2.155500e+01 6.651281e+00
      vertex   -7.326728e+00 2.160551e+01 8.804146e+00
      vertex   -7.384738e+00 2.150548e+01 8.816899e+00
    endloop
  endfacet
  facet normal 8.386704e-01 -5.446389e-01 -5.766001e-04
    outer loop
      vertex   -7.354071e+00 2.155500e+01 6.651281e+00
      vertex   -7.384738e+00 2.150548e+01 8.816899e+00
      vertex   -7.419630e+00 2.145405e+01 6.651281e+00
    endloop
  endfacet
  facet normal 8.120846e-01 -5.835392e-01 7.756775e-04
    outer loop
      vertex   -7.419630e+00 2.145405e+01 6.651281e+00
      vertex   -7.384738e+00 2.150548e+01 8.816899e+00
      vertex   -7.451509e+00 2.141258e+01 8.827053e+00
    endloop
  endfacet
  facet normal 7.771458e-01 -6.293203e-01 -6.088543e-04
    outer loop
      vertex   -7.419630e+00 2.145405e+01 6.651281e+00
      vertex   -7.451509e+00 2.141258e+01 8.827053e+00
      vertex   -7.495383e+00 2.136050e+01 6.651281e+00
    endloop
  endfacet
  facet normal 7.514005e-01 -6.598461e-01 6.409104e-04
    outer loop
      vertex   -7.495383e+00 2.136050e+01 6.651281e+00
      vertex   -7.451509e+00 2.141258e+01 8.827053e+00
      vertex   -7.525509e+00 2.132832e+01 8.834842e+00
    endloop
  endfacet
  facet normal 7.071066e-01 -7.071066e-01 -6.667723e-04
    outer loop
      vertex   -7.495383e+00 2.136050e+01 6.651281e+00
      vertex   -7.525509e+00 2.132832e+01 8.834842e+00
      vertex   -7.580500e+00 2.127538e+01 6.651281e+00
    endloop
  endfacet
  facet normal 6.814534e-01 -7.318613e-01 5.793658e-04
    outer loop
      vertex   -7.580500e+00 2.127538e+01 6.651281e+00
      vertex   -7.525509e+00 2.132832e+01 8.834842e+00
      vertex   -7.607070e+00 2.125238e+01 8.840661e+00
    endloop
  endfacet
  facet normal 6.293203e-01 -7.771459e-01 -5.291968e-04
    outer loop
      vertex   -7.580500e+00 2.127538e+01 6.651281e+00
      vertex   -7.607070e+00 2.125238e+01 8.840661e+00
      vertex   -7.674047e+00 2.119963e+01 6.651281e+00
    endloop
  endfacet
  facet normal 6.062524e-01 -7.952720e-01 6.131775e-04
    outer loop
      vertex   -7.674047e+00 2.119963e+01 6.651281e+00
      vertex   -7.607070e+00 2.125238e+01 8.840661e+00
      vertex   -7.697936e+00 2.118311e+01 8.845010e+00
    endloop
  endfacet
  facet normal 5.446390e-01 -8.386705e-01 -3.845998e-04
    outer loop
      vertex   -7.674047e+00 2.119963e+01 6.651281e+00
      vertex   -7.697936e+00 2.118311e+01 8.845010e+00
      vertex   -7.775000e+00 2.113407e+01 6.651281e+00
    endloop
  endfacet
  facet normal 5.257126e-01 -8.506621e-01 5.483329e-04
    outer loop
      vertex   -7.775000e+00 2.113407e+01 6.651281e+00
      vertex   -7.697936e+00 2.118311e+01 8.845010e+00
      vertex   -7.796691e+00 2.112208e+01 8.848105e+00
    endloop
  endfacet
  facet normal 4.539905e-01 -8.910065e-01 -3.799967e-04
    outer loop
      vertex   -7.775000e+00 2.113407e+01 6.651281e+00
      vertex   -7.796691e+00 2.112208e+01 8.848105e+00
      vertex   -7.882253e+00 2.107942e+01 6.651281e+00
    endloop
  endfacet
  facet normal 4.375154e-01 -8.992108e-01 4.209952e-04
    outer loop
      vertex   -7.882253e+00 2.107942e+01 6.651281e+00
      vertex   -7.796691e+00 2.112208e+01 8.848105e+00
      vertex   -7.901858e+00 2.107091e+01 8.850159e+00
    endloop
  endfacet
  facet normal 3.583679e-01 -9.335803e-01 -4.176888e-04
    outer loop
      vertex   -7.882253e+00 2.107942e+01 6.651281e+00
      vertex   -7.901858e+00 2.107091e+01 8.850159e+00
      vertex   -7.994630e+00 2.103629e+01 6.651281e+00
    endloop
  endfacet
  facet normal 3.410591e-01 -9.400418e-01 4.143408e-04
    outer loop
      vertex   -7.994630e+00 2.103629e+01 6.651281e+00
      vertex   -7.901858e+00 2.107091e+01 8.850159e+00
      vertex   -8.011869e+00 2.103100e+01 8.851431e+00
    endloop
  endfacet
  facet normal 2.588190e-01 -9.659258e-01 -2.922086e-04
    outer loop
      vertex   -7.994630e+00 2.103629e+01 6.651281e+00
      vertex   -8.011869e+00 2.103100e+01 8.851431e+00
      vertex   -8.110902e+00 2.100513e+01 6.651281e+00
    endloop
  endfacet
  facet normal 2.440818e-01 -9.697546e-01 4.161576e-04
    outer loop
      vertex   -8.110902e+00 2.100513e+01 6.651281e+00
      vertex   -8.011869e+00 2.103100e+01 8.851431e+00
      vertex   -8.124686e+00 2.100261e+01 8.852158e+00
    endloop
  endfacet
  facet normal 1.562502e-01 -9.877175e-01 -1.545576e-04
    outer loop
      vertex   -8.110902e+00 2.100513e+01 6.651281e+00
      vertex   -8.124686e+00 2.100261e+01 8.852158e+00
      vertex   -8.230219e+00 2.098626e+01 6.651281e+00
    endloop
  endfacet
  facet normal 1.479454e-01 -9.889955e-01 2.531538e-04
    outer loop
      vertex   -8.230219e+00 2.098626e+01 6.651281e+00
      vertex   -8.124686e+00 2.100261e+01 8.852158e+00
      vertex   -8.238124e+00 2.098564e+01 8.852486e+00
    endloop
  endfacet
  facet normal 5.214965e-02 -9.986393e-01 -9.359446e-05
    outer loop
      vertex   -8.230219e+00 2.098626e+01 6.651281e+00
      vertex   -8.238124e+00 2.098564e+01 8.852486e+00
      vertex   -8.350000e+00 2.098000e+01 6.651281e+00
    endloop
  endfacet
  facet normal 5.031288e-02 -9.987335e-01 0.000000e+00
    outer loop
      vertex   -8.350000e+00 2.098000e+01 6.651281e+00
      vertex   -8.238124e+00 2.098564e+01 8.852486e+00
      vertex   -8.350000e+00 2.098000e+01 8.852563e+00
    endloop
  endfacet
  facet normal -5.031288e-02 -9.987335e-01 0.000000e+00
    outer loop
      vertex   -8.350000e+00 2.098000e+01 6.651281e+00
      vertex   -8.350000e+00 2.098000e+01 8.852563e+00
      vertex   -8.461876e+00 2.098564e+01 8.852486e+00
    endloop
  endfacet
  facet normal -5.214965e-02 -9.986393e-01 -9.359446e-05
    outer loop
      vertex   -8.350000e+00 2.098000e+01 6.651281e+00
      vertex   -8.461876e+00 2.098564e+01 8.852486e+00
      vertex   -8.469781e+00 2.098626e+01 6.651281e+00
    endloop
  endfacet
  facet normal -1.479454e-01 -9.889955e-01 2.531538e-04
    outer loop
      vertex   -8.469781e+00 2.098626e+01 6.651281e+00
      vertex   -8.461876e+00 2.098564e+01 8.852486e+00
      vertex   -8.575314e+00 2.100261e+01 8.852158e+00
    endloop
  endfacet
  facet normal -1.562502e-01 -9.877175e-01 -1.545576e-04
    outer loop
      vertex   -8.469781e+00 2.098626e+01 6.651281e+00
      vertex   -8.575314e+00 2.100261e+01 8.852158e+00
      vertex   -8.589098e+00 2.100513e+01 6.651281e+00
    endloop
  endfacet
  facet normal -2.440818e-01 -9.697546e-01 4.161576e-04
    outer loop
      vertex   -8.589098e+00 2.100513e+01 6.651281e+00
      vertex   -8.575314e+00 2.100261e+01 8.852158e+00
      vertex   -8.688131e+00 2.103100e+01 8.851431e+00
    endloop
  endfacet
  facet normal -2.588190e-01 -9.659258e-01 -2.922086e-04
    outer loop
      vertex   -8.589098e+00 2.100513e+01 6.651281e+00
      vertex   -8.688131e+00 2.103100e+01 8.851431e+00
      vertex   -8.705370e+00 2.103629e+01 6.651281e+00
    endloop
  endfacet
  facet normal -3.410591e-01 -9.400418e-01 4.143408e-04
    outer loop
      vertex   -8.705370e+00 2.103629e+01 6.651281e+00
      vertex   -8.688131e+00 2.103100e+01 8.851431e+00
      vertex   -8.798142e+00 2.107091e+01 8.850159e+00
    endloop
  endfacet
  facet normal -3.583679e-01 -9.335803e-01 -4.176888e-04
    outer loop
      vertex   -8.705370e+00 2.103629e+01 6.651281e+00
      vertex   -8.798142e+00 2.107091e+01 8.850159e+00
      vertex   -8.817747e+00 2.107942e+01 6.651281e+00
    endloop
  endfacet
  facet normal -4.375154e-01 -8.992108e-01 4.209952e-04
    outer loop
      vertex   -8.817747e+00 2.107942e+01 6.651281e+00
      vertex   -8.798142e+00 2.107091e+01 8.850159e+00
      vertex   -8.903309e+00 2.112208e+01 8.848105e+00
    endloop
  endfacet
  facet normal -4.539905e-01 -8.910065e-01 -3.799967e-04
    outer loop
      vertex   -8.817747e+00 2.107942e+01 6.651281e+00
      vertex   -8.903309e+00 2.112208e+01 8.848105e+00
      vertex   -8.925000e+00 2.113407e+01 6.651281e+00
    endloop
  endfacet
  facet normal -5.257126e-01 -8.506621e-01 5.483329e-04
    outer loop
      vertex   -8.925000e+00 2.113407e+01 6.651281e+00
      vertex   -8.903309e+00 2.112208e+01 8.848105e+00
      vertex   -9.002064e+00 2.118311e+01 8.845010e+00
    endloop
  endfacet
  facet normal -5.446390e-01 -8.386705e-01 -3.845998e-04
    outer loop
      vertex   -8.925000e+00 2.113407e+01 6.651281e+00
      vertex   -9.002064e+00 2.118311e+01 8.845010e+00
      vertex   -9.025953e+00 2.119963e+01 6.651281e+00
    endloop
  endfacet
  facet normal -6.062524e-01 -7.952720e-01 6.131775e-04
    outer loop
      vertex   -9.025953e+00 2.119963e+01 6.651281e+00
      vertex   -9.002064e+00 2.118311e+01 8.845010e+00
      vertex   -9.092930e+00 2.125238e+01 8.840661e+00
    endloop
  endfacet
  facet normal -6.293203e-01 -7.771459e-01 -5.291968e-04
    outer loop
      vertex   -9.025953e+00 2.119963e+01 6.651281e+00
      vertex   -9.092930e+00 2.125238e+01 8.840661e+00
      vertex   -9.119500e+00 2.127538e+01 6.651281e+00
    endloop
  endfacet
  facet normal -6.814534e-01 -7.318613e-01 5.793658e-04
    outer loop
      vertex   -9.119500e+00 2.127538e+01 6.651281e+00
      vertex   -9.092930e+00 2.125238e+01 8.840661e+00
      vertex   -9.174491e+00 2.132832e+01 8.834842e+00
    endloop
  endfacet
  facet normal -7.071066e-01 -7.071066e-01 -6.667723e-04
    outer loop
      vertex   -9.119500e+00 2.127538e+01 6.651281e+00
      vertex   -9.174491e+00 2.132832e+01 8.834842e+00
      vertex   -9.204617e+00 2.136050e+01 6.651281e+00
    endloop
  endfacet
  facet normal -7.514005e-01 -6.598461e-01 6.409104e-04
    outer loop
      vertex   -9.204617e+00 2.136050e+01 6.651281e+00
      vertex   -9.174491e+00 2.132832e+01 8.834842e+00
      vertex   -9.248491e+00 2.141258e+01 8.827053e+00
    endloop
  endfacet
  facet normal -7.771458e-01 -6.293203e-01 -6.088543e-04
    outer loop
      vertex   -9.204617e+00 2.136050e+01 6.651281e+00
      vertex   -9.248491e+00 2.141258e+01 8.827053e+00
      vertex   -9.280370e+00 2.145405e+01 6.651281e+00
    endloop
  endfacet
  facet normal -8.120846e-01 -5.835392e-01 7.756775e-04
    outer loop
      vertex   -9.280370e+00 2.145405e+01 6.651281e+00
      vertex   -9.248491e+00 2.141258e+01 8.827053e+00
      vertex   -9.315262e+00 2.150548e+01 8.816899e+00
    endloop
  endfacet
  facet normal -8.386704e-01 -5.446389e-01 -5.766001e-04
    outer loop
      vertex   -9.280370e+00 2.145405e+01 6.651281e+00
      vertex   -9.315262e+00 2.150548e+01 8.816899e+00
      vertex   -9.345929e+00 2.155500e+01 6.651281e+00
    endloop
  endfacet
  facet normal -8.650955e-01 -5.016066e-01 7.815446e-04
    outer loop
      vertex   -9.345929e+00 2.155500e+01 6.651281e+00
      vertex   -9.315262e+00 2.150548e+01 8.816899e+00
      vertex   -9.373272e+00 2.160551e+01 8.804146e+00
    endloop
  endfacet
  facet normal -8.910063e-01 -4.539904e-01 -6.647406e-04
    outer loop
      vertex   -9.345929e+00 2.155500e+01 6.651281e+00
      vertex   -9.373272e+00 2.160551e+01 8.804146e+00
      vertex   -9.400577e+00 2.166225e+01 6.651281e+00
    endloop
  endfacet
  facet normal -9.113355e-01 -4.116638e-01 7.086617e-04
    outer loop
      vertex   -9.400577e+00 2.166225e+01 6.651281e+00
      vertex   -9.373272e+00 2.160551e+01 8.804146e+00
      vertex   -9.420994e+00 2.171113e+01 8.788558e+00
    endloop
  endfacet
  facet normal -9.335802e-01 -3.583679e-01 -7.226952e-04
    outer loop
      vertex   -9.400577e+00 2.166225e+01 6.651281e+00
      vertex   -9.420994e+00 2.171113e+01 8.788558e+00
      vertex   -9.443715e+00 2.177463e+01 6.651281e+00
    endloop
  endfacet
  facet normal -9.490157e-01 -3.152281e-01 7.230859e-04
    outer loop
      vertex   -9.443715e+00 2.177463e+01 6.651281e+00
      vertex   -9.420994e+00 2.171113e+01 8.788558e+00
      vertex   -9.457380e+00 2.182063e+01 8.769985e+00
    endloop
  endfacet
  facet normal -9.628096e-01 -2.701805e-01 -3.438910e-04
    outer loop
      vertex   -9.443715e+00 2.177463e+01 6.651281e+00
      vertex   -9.457380e+00 2.182063e+01 8.769985e+00
      vertex   -9.472497e+00 2.188000e+01 4.450000e+00
    endloop
  endfacet
  facet normal -9.690781e-01 -2.467543e-01 0.000000e+00
    outer loop
      vertex   -9.472497e+00 2.188000e+01 4.450000e+00
      vertex   -9.457380e+00 2.182063e+01 8.769985e+00
      vertex   -9.472497e+00 2.188000e+01 6.750000e+00
    endloop
  endfacet
  facet normal -9.754986e-01 -2.200041e-01 8.342908e-04
    outer loop
      vertex   -9.472497e+00 2.188000e+01 6.750000e+00
      vertex   -9.457380e+00 2.182063e+01 8.769985e+00
      vertex   -9.482493e+00 2.193190e+01 8.748719e+00
    endloop
  endfacet
  facet normal -9.846719e-01 -1.744162e-01 -3.953573e-04
    outer loop
      vertex   -9.472497e+00 2.188000e+01 6.750000e+00
      vertex   -9.482493e+00 2.193190e+01 8.748719e+00
      vertex   -9.490074e+00 2.197923e+01 6.750000e+00
    endloop
  endfacet
  facet normal -9.920748e-01 -1.256458e-01 7.875525e-04
    outer loop
      vertex   -9.490074e+00 2.197923e+01 6.750000e+00
      vertex   -9.482493e+00 2.193190e+01 8.748719e+00
      vertex   -9.496556e+00 2.204279e+01 8.725154e+00
    endloop
  endfacet
  facet normal -9.961605e-01 -8.754420e-02 -4.520625e-04
    outer loop
      vertex   -9.490074e+00 2.197923e+01 6.750000e+00
      vertex   -9.496556e+00 2.204279e+01 8.725154e+00
      vertex   -9.498896e+00 2.207961e+01 6.750000e+00
    endloop
  endfacet
  facet normal -9.995595e-01 -2.967107e-02 6.308190e-04
    outer loop
      vertex   -9.498896e+00 2.207961e+01 6.750000e+00
      vertex   -9.496556e+00 2.204279e+01 8.725154e+00
      vertex   -9.499793e+00 2.215129e+01 8.699654e+00
    endloop
  endfacet
  facet normal -9.999999e-01 0.000000e+00 -4.602528e-04
    outer loop
      vertex   -9.498896e+00 2.207961e+01 6.750000e+00
      vertex   -9.499793e+00 2.215129e+01 8.699654e+00
      vertex   -9.498896e+00 2.218039e+01 6.750000e+00
    endloop
  endfacet
  facet normal -9.977026e-01 6.774343e-02 5.516744e-04
    outer loop
      vertex   -9.498896e+00 2.218039e+01 6.750000e+00
      vertex   -9.499793e+00 2.215129e+01 8.699654e+00
      vertex   -9.492430e+00 2.225997e+01 8.671546e+00
    endloop
  endfacet
  facet normal -9.961606e-01 8.754421e-02 -2.735535e-04
    outer loop
      vertex   -9.498896e+00 2.218039e+01 6.750000e+00
      vertex   -9.492430e+00 2.225997e+01 8.671546e+00
      vertex   -9.490074e+00 2.228077e+01 6.750000e+00
    endloop
  endfacet
  facet normal -9.868350e-01 1.617297e-01 5.411372e-04
    outer loop
      vertex   -9.490074e+00 2.228077e+01 6.750000e+00
      vertex   -9.492430e+00 2.225997e+01 8.671546e+00
      vertex   -9.474538e+00 2.236924e+01 8.640820e+00
    endloop
  endfacet
  facet normal -9.846720e-01 1.744162e-01 -7.020983e-05
    outer loop
      vertex   -9.490074e+00 2.228077e+01 6.750000e+00
      vertex   -9.474538e+00 2.236924e+01 8.640820e+00
      vertex   -9.472497e+00 2.238000e+01 6.750000e+00
    endloop
  endfacet
  facet normal -9.671490e-01 2.542100e-01 4.028075e-04
    outer loop
      vertex   -9.472497e+00 2.238000e+01 6.750000e+00
      vertex   -9.474538e+00 2.236924e+01 8.640820e+00
      vertex   -9.446144e+00 2.247732e+01 8.608018e+00
    endloop
  endfacet
  facet normal -9.646860e-01 2.634024e-01 -1.136063e-04
    outer loop
      vertex   -9.472497e+00 2.238000e+01 6.750000e+00
      vertex   -9.446144e+00 2.247732e+01 8.608018e+00
      vertex   -9.443715e+00 2.248537e+01 6.651281e+00
    endloop
  endfacet
  facet normal -9.378689e-01 3.469897e-01 2.635939e-04
    outer loop
      vertex   -9.443715e+00 2.248537e+01 6.651281e+00
      vertex   -9.446144e+00 2.247732e+01 8.608018e+00
      vertex   -9.407272e+00 2.258241e+01 8.573682e+00
    endloop
  endfacet
  facet normal -9.335804e-01 3.583679e-01 -3.920604e-04
    outer loop
      vertex   -9.443715e+00 2.248537e+01 6.651281e+00
      vertex   -9.407272e+00 2.258241e+01 8.573682e+00
      vertex   -9.400577e+00 2.259775e+01 6.651281e+00
    endloop
  endfacet
  facet normal -8.985016e-01 4.389701e-01 3.731836e-04
    outer loop
      vertex   -9.400577e+00 2.259775e+01 6.651281e+00
      vertex   -9.407272e+00 2.258241e+01 8.573682e+00
      vertex   -9.358209e+00 2.268286e+01 8.538465e+00
    endloop
  endfacet
  facet normal -8.910064e-01 4.539904e-01 -4.725486e-04
    outer loop
      vertex   -9.400577e+00 2.259775e+01 6.651281e+00
      vertex   -9.358209e+00 2.268286e+01 8.538465e+00
      vertex   -9.345929e+00 2.270500e+01 6.651281e+00
    endloop
  endfacet
  facet normal -8.519181e-01 5.236748e-01 5.991503e-04
    outer loop
      vertex   -9.345929e+00 2.270500e+01 6.651281e+00
      vertex   -9.358209e+00 2.268286e+01 8.538465e+00
      vertex   -9.300086e+00 2.277746e+01 8.503214e+00
    endloop
  endfacet
  facet normal -8.386704e-01 5.446390e-01 -5.490272e-04
    outer loop
      vertex   -9.345929e+00 2.270500e+01 6.651281e+00
      vertex   -9.300086e+00 2.277746e+01 8.503214e+00
      vertex   -9.280370e+00 2.280595e+01 6.651281e+00
    endloop
  endfacet
  facet normal -7.990238e-01 6.012989e-01 7.448550e-04
    outer loop
      vertex   -9.280370e+00 2.280595e+01 6.651281e+00
      vertex   -9.300086e+00 2.277746e+01 8.503214e+00
      vertex   -9.234210e+00 2.286504e+01 8.468771e+00
    endloop
  endfacet
  facet normal -7.771458e-01 6.293202e-01 -7.217690e-04
    outer loop
      vertex   -9.280370e+00 2.280595e+01 6.651281e+00
      vertex   -9.234210e+00 2.286504e+01 8.468771e+00
      vertex   -9.204617e+00 2.289950e+01 6.651281e+00
    endloop
  endfacet
  facet normal -7.391883e-01 6.734984e-01 7.339116e-04
    outer loop
      vertex   -9.204617e+00 2.289950e+01 6.651281e+00
      vertex   -9.234210e+00 2.286504e+01 8.468771e+00
      vertex   -9.161885e+00 2.294445e+01 8.435978e+00
    endloop
  endfacet
  facet normal -7.071065e-01 7.071065e-01 -8.807833e-04
    outer loop
      vertex   -9.204617e+00 2.289950e+01 6.651281e+00
      vertex   -9.161885e+00 2.294445e+01 8.435978e+00
      vertex   -9.119500e+00 2.298462e+01 6.651281e+00
    endloop
  endfacet
  facet normal -6.710152e-01 7.414432e-01 7.490456e-04
    outer loop
      vertex   -9.119500e+00 2.298462e+01 6.651281e+00
      vertex   -9.161885e+00 2.294445e+01 8.435978e+00
      vertex   -9.082290e+00 2.301652e+01 8.404845e+00
    endloop
  endfacet
  facet normal -6.293202e-01 7.771457e-01 -7.852918e-04
    outer loop
      vertex   -9.119500e+00 2.298462e+01 6.651281e+00
      vertex   -9.082290e+00 2.301652e+01 8.404845e+00
      vertex   -9.025953e+00 2.306037e+01 6.651281e+00
    endloop
  endfacet
  facet normal -5.977700e-01 8.016672e-01 8.414882e-04
    outer loop
      vertex   -9.025953e+00 2.306037e+01 6.651281e+00
      vertex   -9.082290e+00 2.301652e+01 8.404845e+00
      vertex   -8.993579e+00 2.308270e+01 8.375127e+00
    endloop
  endfacet
  facet normal -5.446389e-01 8.386704e-01 -6.356623e-04
    outer loop
      vertex   -9.025953e+00 2.306037e+01 6.651281e+00
      vertex   -8.993579e+00 2.308270e+01 8.375127e+00
      vertex   -8.925000e+00 2.312593e+01 6.651281e+00
    endloop
  endfacet
  facet normal -5.190907e-01 8.547188e-01 7.831549e-04
    outer loop
      vertex   -8.925000e+00 2.312593e+01 6.651281e+00
      vertex   -8.993579e+00 2.308270e+01 8.375127e+00
      vertex   -8.897023e+00 2.314137e+01 8.347899e+00
    endloop
  endfacet
  facet normal -4.539904e-01 8.910064e-01 -6.205180e-04
    outer loop
      vertex   -8.925000e+00 2.312593e+01 6.651281e+00
      vertex   -8.897023e+00 2.314137e+01 8.347899e+00
      vertex   -8.817747e+00 2.318058e+01 6.651281e+00
    endloop
  endfacet
  facet normal -4.326808e-01 9.015470e-01 6.187967e-04
    outer loop
      vertex   -8.817747e+00 2.318058e+01 6.651281e+00
      vertex   -8.897023e+00 2.314137e+01 8.347899e+00
      vertex   -8.793920e+00 2.319086e+01 8.324250e+00
    endloop
  endfacet
  facet normal -3.621234e-01 9.321300e-01 -5.741721e-04
    outer loop
      vertex   -8.817747e+00 2.318058e+01 6.651281e+00
      vertex   -8.793920e+00 2.319086e+01 8.324250e+00
      vertex   -8.740326e+00 2.321168e+01 8.314115e+00
    endloop
  endfacet
  facet normal -3.583678e-01 9.335801e-01 -7.761530e-04
    outer loop
      vertex   -8.817747e+00 2.318058e+01 6.651281e+00
      vertex   -8.740326e+00 2.321168e+01 8.314115e+00
      vertex   -8.705370e+00 2.322371e+01 6.651281e+00
    endloop
  endfacet
  facet normal -3.138076e-01 9.494865e-01 2.757386e-04
    outer loop
      vertex   -8.705370e+00 2.322371e+01 6.651281e+00
      vertex   -8.740326e+00 2.321168e+01 8.314115e+00
      vertex   -8.685660e+00 2.322975e+01 8.305238e+00
    endloop
  endfacet
  facet normal -2.588190e-01 9.659257e-01 -4.394951e-04
    outer loop
      vertex   -8.705370e+00 2.322371e+01 6.651281e+00
      vertex   -8.685660e+00 2.322975e+01 8.305238e+00
      vertex   -8.589098e+00 2.325487e+01 6.651281e+00
    endloop
  endfacet
  facet normal -2.424324e-01 9.701681e-01 5.816285e-04
    outer loop
      vertex   -8.589098e+00 2.325487e+01 6.651281e+00
      vertex   -8.685660e+00 2.322975e+01 8.305238e+00
      vertex   -8.574174e+00 2.325762e+01 8.291375e+00
    endloop
  endfacet
  facet normal -1.562775e-01 9.877132e-01 -2.317563e-04
    outer loop
      vertex   -8.589098e+00 2.325487e+01 6.651281e+00
      vertex   -8.574174e+00 2.325762e+01 8.291375e+00
      vertex   -8.469844e+00 2.327374e+01 6.651281e+00
    endloop
  endfacet
  facet normal -1.473390e-01 9.890860e-01 3.503358e-04
    outer loop
      vertex   -8.469844e+00 2.327374e+01 6.651281e+00
      vertex   -8.574174e+00 2.325762e+01 8.291375e+00
      vertex   -8.461580e+00 2.327439e+01 8.282888e+00
    endloop
  endfacet
  facet normal -7.481067e-02 9.971978e-01 -2.027616e-05
    outer loop
      vertex   -8.469844e+00 2.327374e+01 6.651281e+00
      vertex   -8.461580e+00 2.327439e+01 8.282888e+00
      vertex   -8.405531e+00 2.327860e+01 8.280733e+00
    endloop
  endfacet
  facet normal -5.217728e-02 9.986374e-01 -9.178950e-04
    outer loop
      vertex   -8.469844e+00 2.327374e+01 6.651281e+00
      vertex   -8.405531e+00 2.327860e+01 8.280733e+00
      vertex   -8.350000e+00 2.328000e+01 6.651281e+00
    endloop
  endfacet
  facet normal -9.634694e-01 -2.678182e-01 -2.221842e-04
    outer loop
      vertex   -9.472497e+00 2.188000e+01 4.450000e+00
      vertex   -9.440489e+00 2.176485e+01 4.450000e+00
      vertex   -9.443715e+00 2.177463e+01 6.651281e+00
    endloop
  endfacet
  facet normal -9.335804e-01 -3.583679e-01 2.239279e-04
    outer loop
      vertex   -9.443715e+00 2.177463e+01 6.651281e+00
      vertex   -9.440489e+00 2.176485e+01 4.450000e+00
      vertex   -9.400577e+00 2.166225e+01 6.651281e+00
    endloop
  endfacet
  facet normal -9.304705e-01 -3.663668e-01 -2.052674e-04
    outer loop
      vertex   -9.440489e+00 2.176485e+01 4.450000e+00
      vertex   -9.396702e+00 2.165364e+01 4.450000e+00
      vertex   -9.400577e+00 2.166225e+01 6.651281e+00
    endloop
  endfacet
  facet normal -8.910065e-01 -4.539905e-01 2.068658e-04
    outer loop
      vertex   -9.400577e+00 2.166225e+01 6.651281e+00
      vertex   -9.396702e+00 2.165364e+01 4.450000e+00
      vertex   -9.345929e+00 2.155500e+01 6.651281e+00
    endloop
  endfacet
  facet normal -8.874218e-01 -4.609583e-01 -1.880599e-04
    outer loop
      vertex   -9.396702e+00 2.165364e+01 4.450000e+00
      vertex   -9.341610e+00 2.154758e+01 4.450000e+00
      vertex   -9.345929e+00 2.155500e+01 6.651281e+00
    endloop
  endfacet
  facet normal -8.386706e-01 -5.446390e-01 1.895129e-04
    outer loop
      vertex   -9.345929e+00 2.155500e+01 6.651281e+00
      vertex   -9.341610e+00 2.154758e+01 4.450000e+00
      vertex   -9.280370e+00 2.145405e+01 6.651281e+00
    endloop
  endfacet
  facet normal -8.347882e-01 -5.505711e-01 -1.705617e-04
    outer loop
      vertex   -9.341610e+00 2.154758e+01 4.450000e+00
      vertex   -9.275809e+00 2.144781e+01 4.450000e+00
      vertex   -9.280370e+00 2.145405e+01 6.651281e+00
    endloop
  endfacet
  facet normal -7.771459e-01 -6.293204e-01 1.718694e-04
    outer loop
      vertex   -9.280370e+00 2.145405e+01 6.651281e+00
      vertex   -9.275809e+00 2.144781e+01 4.450000e+00
      vertex   -9.204617e+00 2.136050e+01 6.651281e+00
    endloop
  endfacet
  facet normal -7.731384e-01 -6.342374e-01 -1.527729e-04
    outer loop
      vertex   -9.275809e+00 2.144781e+01 4.450000e+00
      vertex   -9.200007e+00 2.135541e+01 4.450000e+00
      vertex   -9.204617e+00 2.136050e+01 6.651281e+00
    endloop
  endfacet
  facet normal -7.071068e-01 -7.071068e-01 1.539353e-04
    outer loop
      vertex   -9.204617e+00 2.136050e+01 6.651281e+00
      vertex   -9.200007e+00 2.135541e+01 4.450000e+00
      vertex   -9.119500e+00 2.127538e+01 6.651281e+00
    endloop
  endfacet
  facet normal -7.031380e-01 -7.110534e-01 -1.346934e-04
    outer loop
      vertex   -9.200007e+00 2.135541e+01 4.450000e+00
      vertex   -9.115025e+00 2.127138e+01 4.450000e+00
      vertex   -9.119500e+00 2.127538e+01 6.651281e+00
    endloop
  endfacet
  facet normal -6.293204e-01 -7.771460e-01 1.357105e-04
    outer loop
      vertex   -9.119500e+00 2.127538e+01 6.651281e+00
      vertex   -9.115025e+00 2.127138e+01 4.450000e+00
      vertex   -9.025953e+00 2.119963e+01 6.651281e+00
    endloop
  endfacet
  facet normal -6.255432e-01 -7.801895e-01 -1.163233e-04
    outer loop
      vertex   -9.115025e+00 2.127138e+01 4.450000e+00
      vertex   -9.021780e+00 2.119661e+01 4.450000e+00
      vertex   -9.025953e+00 2.119963e+01 6.651281e+00
    endloop
  endfacet
  facet normal -5.446390e-01 -8.386706e-01 1.171951e-04
    outer loop
      vertex   -9.025953e+00 2.119963e+01 6.651281e+00
      vertex   -9.021780e+00 2.119661e+01 4.450000e+00
      vertex   -8.925000e+00 2.113407e+01 6.651281e+00
    endloop
  endfacet
  facet normal -5.411921e-01 -8.408990e-01 -9.766257e-05
    outer loop
      vertex   -9.021780e+00 2.119661e+01 4.450000e+00
      vertex   -8.921280e+00 2.113193e+01 4.450000e+00
      vertex   -8.925000e+00 2.113407e+01 6.651281e+00
    endloop
  endfacet
  facet normal -4.539905e-01 -8.910065e-01 9.838903e-05
    outer loop
      vertex   -8.925000e+00 2.113407e+01 6.651281e+00
      vertex   -8.921280e+00 2.113193e+01 4.450000e+00
      vertex   -8.817747e+00 2.107942e+01 6.651281e+00
    endloop
  endfacet
  facet normal -4.509957e-01 -8.925261e-01 -7.871124e-05
    outer loop
      vertex   -8.921280e+00 2.113193e+01 4.450000e+00
      vertex   -8.814609e+00 2.107803e+01 4.450000e+00
      vertex   -8.817747e+00 2.107942e+01 6.651281e+00
    endloop
  endfacet
  facet normal -3.583679e-01 -9.335804e-01 7.929239e-05
    outer loop
      vertex   -8.817747e+00 2.107942e+01 6.651281e+00
      vertex   -8.814609e+00 2.107803e+01 4.450000e+00
      vertex   -8.705370e+00 2.103629e+01 6.651281e+00
    endloop
  endfacet
  facet normal -3.559283e-01 -9.345133e-01 -5.946930e-05
    outer loop
      vertex   -8.814609e+00 2.107803e+01 4.450000e+00
      vertex   -8.702920e+00 2.103549e+01 4.450000e+00
      vertex   -8.705370e+00 2.103629e+01 6.651281e+00
    endloop
  endfacet
  facet normal -2.588190e-01 -9.659258e-01 5.990516e-05
    outer loop
      vertex   -8.705370e+00 2.103629e+01 6.651281e+00
      vertex   -8.702920e+00 2.103549e+01 4.450000e+00
      vertex   -8.589098e+00 2.100513e+01 6.651281e+00
    endloop
  endfacet
  facet normal -2.570165e-01 -9.664070e-01 -3.993678e-05
    outer loop
      vertex   -8.702920e+00 2.103549e+01 4.450000e+00
      vertex   -8.587419e+00 2.100477e+01 4.450000e+00
      vertex   -8.589098e+00 2.100513e+01 6.651281e+00
    endloop
  endfacet
  facet normal -1.562502e-01 -9.877175e-01 4.037262e-05
    outer loop
      vertex   -8.589098e+00 2.100513e+01 6.651281e+00
      vertex   -8.587419e+00 2.100477e+01 4.450000e+00
      vertex   -8.469781e+00 2.098626e+01 6.651281e+00
    endloop
  endfacet
  facet normal -1.553287e-01 -9.878628e-01 -1.009339e-05
    outer loop
      vertex   -8.587419e+00 2.100477e+01 4.450000e+00
      vertex   -8.469354e+00 2.098621e+01 4.450000e+00
      vertex   -8.469781e+00 2.098626e+01 6.651281e+00
    endloop
  endfacet
  facet normal -5.214965e-02 -9.986393e-01 1.012971e-05
    outer loop
      vertex   -8.469781e+00 2.098626e+01 6.651281e+00
      vertex   -8.469354e+00 2.098621e+01 4.450000e+00
      vertex   -8.350000e+00 2.098000e+01 6.651281e+00
    endloop
  endfacet
  facet normal -5.196333e-02 -9.986490e-01 0.000000e+00
    outer loop
      vertex   -8.469354e+00 2.098621e+01 4.450000e+00
      vertex   -8.350000e+00 2.098000e+01 4.450000e+00
      vertex   -8.350000e+00 2.098000e+01 6.651281e+00
    endloop
  endfacet
  facet normal 5.196333e-02 -9.986490e-01 0.000000e+00
    outer loop
      vertex   -8.350000e+00 2.098000e+01 6.651281e+00
      vertex   -8.350000e+00 2.098000e+01 4.450000e+00
      vertex   -8.230646e+00 2.098621e+01 4.450000e+00
    endloop
  endfacet
  facet normal 5.214965e-02 -9.986393e-01 1.012971e-05
    outer loop
      vertex   -8.350000e+00 2.098000e+01 6.651281e+00
      vertex   -8.230646e+00 2.098621e+01 4.450000e+00
      vertex   -8.230219e+00 2.098626e+01 6.651281e+00
    endloop
  endfacet
  facet normal 1.553287e-01 -9.878628e-01 -1.009339e-05
    outer loop
      vertex   -8.230219e+00 2.098626e+01 6.651281e+00
      vertex   -8.230646e+00 2.098621e+01 4.450000e+00
      vertex   -8.112581e+00 2.100477e+01 4.450000e+00
    endloop
  endfacet
  facet normal 1.562502e-01 -9.877175e-01 4.037262e-05
    outer loop
      vertex   -8.230219e+00 2.098626e+01 6.651281e+00
      vertex   -8.112581e+00 2.100477e+01 4.450000e+00
      vertex   -8.110902e+00 2.100513e+01 6.651281e+00
    endloop
  endfacet
  facet normal 2.570165e-01 -9.664070e-01 -3.993678e-05
    outer loop
      vertex   -8.110902e+00 2.100513e+01 6.651281e+00
      vertex   -8.112581e+00 2.100477e+01 4.450000e+00
      vertex   -7.997080e+00 2.103549e+01 4.450000e+00
    endloop
  endfacet
  facet normal 2.588190e-01 -9.659258e-01 5.990516e-05
    outer loop
      vertex   -8.110902e+00 2.100513e+01 6.651281e+00
      vertex   -7.997080e+00 2.103549e+01 4.450000e+00
      vertex   -7.994630e+00 2.103629e+01 6.651281e+00
    endloop
  endfacet
  facet normal 3.559283e-01 -9.345133e-01 -5.946930e-05
    outer loop
      vertex   -7.994630e+00 2.103629e+01 6.651281e+00
      vertex   -7.997080e+00 2.103549e+01 4.450000e+00
      vertex   -7.885391e+00 2.107803e+01 4.450000e+00
    endloop
  endfacet
  facet normal 3.583679e-01 -9.335804e-01 7.929239e-05
    outer loop
      vertex   -7.994630e+00 2.103629e+01 6.651281e+00
      vertex   -7.885391e+00 2.107803e+01 4.450000e+00
      vertex   -7.882253e+00 2.107942e+01 6.651281e+00
    endloop
  endfacet
  facet normal 4.509957e-01 -8.925261e-01 -7.871124e-05
    outer loop
      vertex   -7.882253e+00 2.107942e+01 6.651281e+00
      vertex   -7.885391e+00 2.107803e+01 4.450000e+00
      vertex   -7.778720e+00 2.113193e+01 4.450000e+00
    endloop
  endfacet
  facet normal 4.539905e-01 -8.910065e-01 9.838903e-05
    outer loop
      vertex   -7.882253e+00 2.107942e+01 6.651281e+00
      vertex   -7.778720e+00 2.113193e+01 4.450000e+00
      vertex   -7.775000e+00 2.113407e+01 6.651281e+00
    endloop
  endfacet
  facet normal 5.411921e-01 -8.408990e-01 -9.766257e-05
    outer loop
      vertex   -7.775000e+00 2.113407e+01 6.651281e+00
      vertex   -7.778720e+00 2.113193e+01 4.450000e+00
      vertex   -7.678220e+00 2.119661e+01 4.450000e+00
    endloop
  endfacet
  facet normal 5.446390e-01 -8.386706e-01 1.171951e-04
    outer loop
      vertex   -7.775000e+00 2.113407e+01 6.651281e+00
      vertex   -7.678220e+00 2.119661e+01 4.450000e+00
      vertex   -7.674047e+00 2.119963e+01 6.651281e+00
    endloop
  endfacet
  facet normal 6.255432e-01 -7.801895e-01 -1.163233e-04
    outer loop
      vertex   -7.674047e+00 2.119963e+01 6.651281e+00
      vertex   -7.678220e+00 2.119661e+01 4.450000e+00
      vertex   -7.584975e+00 2.127138e+01 4.450000e+00
    endloop
  endfacet
  facet normal 6.293204e-01 -7.771460e-01 1.357105e-04
    outer loop
      vertex   -7.674047e+00 2.119963e+01 6.651281e+00
      vertex   -7.584975e+00 2.127138e+01 4.450000e+00
      vertex   -7.580500e+00 2.127538e+01 6.651281e+00
    endloop
  endfacet
  facet normal 7.031380e-01 -7.110534e-01 -1.346934e-04
    outer loop
      vertex   -7.580500e+00 2.127538e+01 6.651281e+00
      vertex   -7.584975e+00 2.127138e+01 4.450000e+00
      vertex   -7.499993e+00 2.135541e+01 4.450000e+00
    endloop
  endfacet
  facet normal 7.071068e-01 -7.071068e-01 1.539353e-04
    outer loop
      vertex   -7.580500e+00 2.127538e+01 6.651281e+00
      vertex   -7.499993e+00 2.135541e+01 4.450000e+00
      vertex   -7.495383e+00 2.136050e+01 6.651281e+00
    endloop
  endfacet
  facet normal 7.731384e-01 -6.342374e-01 -1.527729e-04
    outer loop
      vertex   -7.495383e+00 2.136050e+01 6.651281e+00
      vertex   -7.499993e+00 2.135541e+01 4.450000e+00
      vertex   -7.424191e+00 2.144781e+01 4.450000e+00
    endloop
  endfacet
  facet normal 7.771459e-01 -6.293204e-01 1.718694e-04
    outer loop
      vertex   -7.495383e+00 2.136050e+01 6.651281e+00
      vertex   -7.424191e+00 2.144781e+01 4.450000e+00
      vertex   -7.419630e+00 2.145405e+01 6.651281e+00
    endloop
  endfacet
  facet normal 8.347882e-01 -5.505711e-01 -1.705617e-04
    outer loop
      vertex   -7.419630e+00 2.145405e+01 6.651281e+00
      vertex   -7.424191e+00 2.144781e+01 4.450000e+00
      vertex   -7.358390e+00 2.154758e+01 4.450000e+00
    endloop
  endfacet
  facet normal 8.386706e-01 -5.446390e-01 1.895129e-04
    outer loop
      vertex   -7.419630e+00 2.145405e+01 6.651281e+00
      vertex   -7.358390e+00 2.154758e+01 4.450000e+00
      vertex   -7.354071e+00 2.155500e+01 6.651281e+00
    endloop
  endfacet
  facet normal 8.874218e-01 -4.609583e-01 -1.880599e-04
    outer loop
      vertex   -7.354071e+00 2.155500e+01 6.651281e+00
      vertex   -7.358390e+00 2.154758e+01 4.450000e+00
      vertex   -7.303298e+00 2.165364e+01 4.450000e+00
    endloop
  endfacet
  facet normal 8.910065e-01 -4.539905e-01 2.068658e-04
    outer loop
      vertex   -7.354071e+00 2.155500e+01 6.651281e+00
      vertex   -7.303298e+00 2.165364e+01 4.450000e+00
      vertex   -7.299423e+00 2.166225e+01 6.651281e+00
    endloop
  endfacet
  facet normal 9.304705e-01 -3.663668e-01 -2.052674e-04
    outer loop
      vertex   -7.299423e+00 2.166225e+01 6.651281e+00
      vertex   -7.303298e+00 2.165364e+01 4.450000e+00
      vertex   -7.259511e+00 2.176485e+01 4.450000e+00
    endloop
  endfacet
  facet normal 9.335804e-01 -3.583679e-01 2.239279e-04
    outer loop
      vertex   -7.299423e+00 2.166225e+01 6.651281e+00
      vertex   -7.259511e+00 2.176485e+01 4.450000e+00
      vertex   -7.256285e+00 2.177463e+01 6.651281e+00
    endloop
  endfacet
  facet normal 9.634694e-01 -2.678182e-01 -2.221842e-04
    outer loop
      vertex   -7.256285e+00 2.177463e+01 6.651281e+00
      vertex   -7.259511e+00 2.176485e+01 4.450000e+00
      vertex   -7.227503e+00 2.188000e+01 4.450000e+00
    endloop
  endfacet
  facet normal 9.646590e-01 -2.635015e-01 0.000000e+00
    outer loop
      vertex   -7.256285e+00 2.177463e+01 6.651281e+00
      vertex   -7.227503e+00 2.188000e+01 4.450000e+00
      vertex   -7.227503e+00 2.188000e+01 6.750000e+00
    endloop
  endfacet
  facet normal 9.634694e-01 2.678182e-01 -2.221842e-04
    outer loop
      vertex   -7.227503e+00 2.238000e+01 4.450000e+00
      vertex   -7.259511e+00 2.249515e+01 4.450000e+00
      vertex   -7.256285e+00 2.248537e+01 6.651281e+00
    endloop
  endfacet
  facet normal 9.335804e-01 3.583679e-01 2.239279e-04
    outer loop
      vertex   -7.256285e+00 2.248537e+01 6.651281e+00
      vertex   -7.259511e+00 2.249515e+01 4.450000e+00
      vertex   -7.299423e+00 2.259775e+01 6.651281e+00
    endloop
  endfacet
  facet normal 9.304705e-01 3.663668e-01 -2.052674e-04
    outer loop
      vertex   -7.259511e+00 2.249515e+01 4.450000e+00
      vertex   -7.303298e+00 2.260636e+01 4.450000e+00
      vertex   -7.299423e+00 2.259775e+01 6.651281e+00
    endloop
  endfacet
  facet normal 8.910065e-01 4.539905e-01 2.068658e-04
    outer loop
      vertex   -7.299423e+00 2.259775e+01 6.651281e+00
      vertex   -7.303298e+00 2.260636e+01 4.450000e+00
      vertex   -7.354071e+00 2.270500e+01 6.651281e+00
    endloop
  endfacet
  facet normal 8.874218e-01 4.609583e-01 -1.880599e-04
    outer loop
      vertex   -7.303298e+00 2.260636e+01 4.450000e+00
      vertex   -7.358390e+00 2.271242e+01 4.450000e+00
      vertex   -7.354071e+00 2.270500e+01 6.651281e+00
    endloop
  endfacet
  facet normal 8.386706e-01 5.446390e-01 1.895129e-04
    outer loop
      vertex   -7.354071e+00 2.270500e+01 6.651281e+00
      vertex   -7.358390e+00 2.271242e+01 4.450000e+00
      vertex   -7.419630e+00 2.280595e+01 6.651281e+00
    endloop
  endfacet
  facet normal 8.347882e-01 5.505711e-01 -1.705617e-04
    outer loop
      vertex   -7.358390e+00 2.271242e+01 4.450000e+00
      vertex   -7.424191e+00 2.281219e+01 4.450000e+00
      vertex   -7.419630e+00 2.280595e+01 6.651281e+00
    endloop
  endfacet
  facet normal 7.771459e-01 6.293204e-01 1.718694e-04
    outer loop
      vertex   -7.419630e+00 2.280595e+01 6.651281e+00
      vertex   -7.424191e+00 2.281219e+01 4.450000e+00
      vertex   -7.495383e+00 2.289950e+01 6.651281e+00
    endloop
  endfacet
  facet normal 7.731384e-01 6.342374e-01 -1.527729e-04
    outer loop
      vertex   -7.424191e+00 2.281219e+01 4.450000e+00
      vertex   -7.499993e+00 2.290459e+01 4.450000e+00
      vertex   -7.495383e+00 2.289950e+01 6.651281e+00
    endloop
  endfacet
  facet normal 7.071068e-01 7.071068e-01 1.539353e-04
    outer loop
      vertex   -7.495383e+00 2.289950e+01 6.651281e+00
      vertex   -7.499993e+00 2.290459e+01 4.450000e+00
      vertex   -7.580500e+00 2.298462e+01 6.651281e+00
    endloop
  endfacet
  facet normal 7.031380e-01 7.110534e-01 -1.346934e-04
    outer loop
      vertex   -7.499993e+00 2.290459e+01 4.450000e+00
      vertex   -7.584975e+00 2.298862e+01 4.450000e+00
      vertex   -7.580500e+00 2.298462e+01 6.651281e+00
    endloop
  endfacet
  facet normal 6.293204e-01 7.771460e-01 1.357105e-04
    outer loop
      vertex   -7.580500e+00 2.298462e+01 6.651281e+00
      vertex   -7.584975e+00 2.298862e+01 4.450000e+00
      vertex   -7.674047e+00 2.306037e+01 6.651281e+00
    endloop
  endfacet
  facet normal 6.255432e-01 7.801895e-01 -1.163233e-04
    outer loop
      vertex   -7.584975e+00 2.298862e+01 4.450000e+00
      vertex   -7.678220e+00 2.306339e+01 4.450000e+00
      vertex   -7.674047e+00 2.306037e+01 6.651281e+00
    endloop
  endfacet
  facet normal 5.446390e-01 8.386706e-01 1.171951e-04
    outer loop
      vertex   -7.674047e+00 2.306037e+01 6.651281e+00
      vertex   -7.678220e+00 2.306339e+01 4.450000e+00
      vertex   -7.775000e+00 2.312593e+01 6.651281e+00
    endloop
  endfacet
  facet normal 5.411921e-01 8.408990e-01 -9.766257e-05
    outer loop
      vertex   -7.678220e+00 2.306339e+01 4.450000e+00
      vertex   -7.778720e+00 2.312807e+01 4.450000e+00
      vertex   -7.775000e+00 2.312593e+01 6.651281e+00
    endloop
  endfacet
  facet normal 4.539905e-01 8.910065e-01 9.838903e-05
    outer loop
      vertex   -7.775000e+00 2.312593e+01 6.651281e+00
      vertex   -7.778720e+00 2.312807e+01 4.450000e+00
      vertex   -7.882253e+00 2.318058e+01 6.651281e+00
    endloop
  endfacet
  facet normal 4.509957e-01 8.925261e-01 -7.871124e-05
    outer loop
      vertex   -7.778720e+00 2.312807e+01 4.450000e+00
      vertex   -7.885391e+00 2.318197e+01 4.450000e+00
      vertex   -7.882253e+00 2.318058e+01 6.651281e+00
    endloop
  endfacet
  facet normal 3.583679e-01 9.335804e-01 7.929239e-05
    outer loop
      vertex   -7.882253e+00 2.318058e+01 6.651281e+00
      vertex   -7.885391e+00 2.318197e+01 4.450000e+00
      vertex   -7.994630e+00 2.322371e+01 6.651281e+00
    endloop
  endfacet
  facet normal 3.559283e-01 9.345133e-01 -5.946930e-05
    outer loop
      vertex   -7.885391e+00 2.318197e+01 4.450000e+00
      vertex   -7.997080e+00 2.322451e+01 4.450000e+00
      vertex   -7.994630e+00 2.322371e+01 6.651281e+00
    endloop
  endfacet
  facet normal 2.588190e-01 9.659258e-01 5.990516e-05
    outer loop
      vertex   -7.994630e+00 2.322371e+01 6.651281e+00
      vertex   -7.997080e+00 2.322451e+01 4.450000e+00
      vertex   -8.110902e+00 2.325487e+01 6.651281e+00
    endloop
  endfacet
  facet normal 2.570165e-01 9.664070e-01 -3.993678e-05
    outer loop
      vertex   -7.997080e+00 2.322451e+01 4.450000e+00
      vertex   -8.112581e+00 2.325523e+01 4.450000e+00
      vertex   -8.110902e+00 2.325487e+01 6.651281e+00
    endloop
  endfacet
  facet normal 1.562775e-01 9.877132e-01 4.035106e-05
    outer loop
      vertex   -8.110902e+00 2.325487e+01 6.651281e+00
      vertex   -8.112581e+00 2.325523e+01 4.450000e+00
      vertex   -8.230156e+00 2.327374e+01 6.651281e+00
    endloop
  endfacet
  facet normal 1.553287e-01 9.878628e-01 -1.158514e-05
    outer loop
      vertex   -8.112581e+00 2.325523e+01 4.450000e+00
      vertex   -8.230646e+00 2.327379e+01 4.450000e+00
      vertex   -8.230156e+00 2.327374e+01 6.651281e+00
    endloop
  endfacet
  facet normal 5.217730e-02 9.986378e-01 1.163304e-05
    outer loop
      vertex   -8.230156e+00 2.327374e+01 6.651281e+00
      vertex   -8.230646e+00 2.327379e+01 4.450000e+00
      vertex   -8.350000e+00 2.328000e+01 6.651281e+00
    endloop
  endfacet
  facet normal 5.196333e-02 9.986490e-01 4.203491e-17
    outer loop
      vertex   -8.230646e+00 2.327379e+01 4.450000e+00
      vertex   -8.350000e+00 2.328000e+01 4.450000e+00
      vertex   -8.350000e+00 2.328000e+01 6.651281e+00
    endloop
  endfacet
  facet normal -5.196333e-02 9.986490e-01 -4.193258e-17
    outer loop
      vertex   -8.350000e+00 2.328000e+01 6.651281e+00
      vertex   -8.350000e+00 2.328000e+01 4.450000e+00
      vertex   -8.469354e+00 2.327379e+01 4.450000e+00
    endloop
  endfacet
  facet normal -5.217730e-02 9.986378e-01 1.163304e-05
    outer loop
      vertex   -8.350000e+00 2.328000e+01 6.651281e+00
      vertex   -8.469354e+00 2.327379e+01 4.450000e+00
      vertex   -8.469844e+00 2.327374e+01 6.651281e+00
    endloop
  endfacet
  facet normal -1.553287e-01 9.878628e-01 -1.158514e-05
    outer loop
      vertex   -8.469844e+00 2.327374e+01 6.651281e+00
      vertex   -8.469354e+00 2.327379e+01 4.450000e+00
      vertex   -8.587419e+00 2.325523e+01 4.450000e+00
    endloop
  endfacet
  facet normal -1.562775e-01 9.877132e-01 4.035106e-05
    outer loop
      vertex   -8.469844e+00 2.327374e+01 6.651281e+00
      vertex   -8.587419e+00 2.325523e+01 4.450000e+00
      vertex   -8.589098e+00 2.325487e+01 6.651281e+00
    endloop
  endfacet
  facet normal -2.570165e-01 9.664070e-01 -3.993678e-05
    outer loop
      vertex   -8.589098e+00 2.325487e+01 6.651281e+00
      vertex   -8.587419e+00 2.325523e+01 4.450000e+00
      vertex   -8.702920e+00 2.322451e+01 4.450000e+00
    endloop
  endfacet
  facet normal -2.588190e-01 9.659258e-01 5.990516e-05
    outer loop
      vertex   -8.589098e+00 2.325487e+01 6.651281e+00
      vertex   -8.702920e+00 2.322451e+01 4.450000e+00
      vertex   -8.705370e+00 2.322371e+01 6.651281e+00
    endloop
  endfacet
  facet normal -3.559283e-01 9.345133e-01 -5.946930e-05
    outer loop
      vertex   -8.705370e+00 2.322371e+01 6.651281e+00
      vertex   -8.702920e+00 2.322451e+01 4.450000e+00
      vertex   -8.814609e+00 2.318197e+01 4.450000e+00
    endloop
  endfacet
  facet normal -3.583679e-01 9.335804e-01 7.929239e-05
    outer loop
      vertex   -8.705370e+00 2.322371e+01 6.651281e+00
      vertex   -8.814609e+00 2.318197e+01 4.450000e+00
      vertex   -8.817747e+00 2.318058e+01 6.651281e+00
    endloop
  endfacet
  facet normal -4.509957e-01 8.925261e-01 -7.871124e-05
    outer loop
      vertex   -8.817747e+00 2.318058e+01 6.651281e+00
      vertex   -8.814609e+00 2.318197e+01 4.450000e+00
      vertex   -8.921280e+00 2.312807e+01 4.450000e+00
    endloop
  endfacet
  facet normal -4.539905e-01 8.910065e-01 9.838903e-05
    outer loop
      vertex   -8.817747e+00 2.318058e+01 6.651281e+00
      vertex   -8.921280e+00 2.312807e+01 4.450000e+00
      vertex   -8.925000e+00 2.312593e+01 6.651281e+00
    endloop
  endfacet
  facet normal -5.411921e-01 8.408990e-01 -9.766257e-05
    outer loop
      vertex   -8.925000e+00 2.312593e+01 6.651281e+00
      vertex   -8.921280e+00 2.312807e+01 4.450000e+00
      vertex   -9.021780e+00 2.306339e+01 4.450000e+00
    endloop
  endfacet
  facet normal -5.446390e-01 8.386706e-01 1.171951e-04
    outer loop
      vertex   -8.925000e+00 2.312593e+01 6.651281e+00
      vertex   -9.021780e+00 2.306339e+01 4.450000e+00
      vertex   -9.025953e+00 2.306037e+01 6.651281e+00
    endloop
  endfacet
  facet normal -6.255432e-01 7.801895e-01 -1.163233e-04
    outer loop
      vertex   -9.025953e+00 2.306037e+01 6.651281e+00
      vertex   -9.021780e+00 2.306339e+01 4.450000e+00
      vertex   -9.115025e+00 2.298862e+01 4.450000e+00
    endloop
  endfacet
  facet normal -6.293204e-01 7.771460e-01 1.357105e-04
    outer loop
      vertex   -9.025953e+00 2.306037e+01 6.651281e+00
      vertex   -9.115025e+00 2.298862e+01 4.450000e+00
      vertex   -9.119500e+00 2.298462e+01 6.651281e+00
    endloop
  endfacet
  facet normal -7.031380e-01 7.110534e-01 -1.346934e-04
    outer loop
      vertex   -9.119500e+00 2.298462e+01 6.651281e+00
      vertex   -9.115025e+00 2.298862e+01 4.450000e+00
      vertex   -9.200007e+00 2.290459e+01 4.450000e+00
    endloop
  endfacet
  facet normal -7.071068e-01 7.071068e-01 1.539353e-04
    outer loop
      vertex   -9.119500e+00 2.298462e+01 6.651281e+00
      vertex   -9.200007e+00 2.290459e+01 4.450000e+00
      vertex   -9.204617e+00 2.289950e+01 6.651281e+00
    endloop
  endfacet
  facet normal -7.731384e-01 6.342374e-01 -1.527729e-04
    outer loop
      vertex   -9.204617e+00 2.289950e+01 6.651281e+00
      vertex   -9.200007e+00 2.290459e+01 4.450000e+00
      vertex   -9.275809e+00 2.281219e+01 4.450000e+00
    endloop
  endfacet
  facet normal -7.771459e-01 6.293204e-01 1.718694e-04
    outer loop
      vertex   -9.204617e+00 2.289950e+01 6.651281e+00
      vertex   -9.275809e+00 2.281219e+01 4.450000e+00
      vertex   -9.280370e+00 2.280595e+01 6.651281e+00
    endloop
  endfacet
  facet normal -8.347882e-01 5.505711e-01 -1.705617e-04
    outer loop
      vertex   -9.280370e+00 2.280595e+01 6.651281e+00
      vertex   -9.275809e+00 2.281219e+01 4.450000e+00
      vertex   -9.341610e+00 2.271242e+01 4.450000e+00
    endloop
  endfacet
  facet normal -8.386706e-01 5.446390e-01 1.895129e-04
    outer loop
      vertex   -9.280370e+00 2.280595e+01 6.651281e+00
      vertex   -9.341610e+00 2.271242e+01 4.450000e+00
      vertex   -9.345929e+00 2.270500e+01 6.651281e+00
    endloop
  endfacet
  facet normal -8.874218e-01 4.609583e-01 -1.880599e-04
    outer loop
      vertex   -9.345929e+00 2.270500e+01 6.651281e+00
      vertex   -9.341610e+00 2.271242e+01 4.450000e+00
      vertex   -9.396702e+00 2.260636e+01 4.450000e+00
    endloop
  endfacet
  facet normal -8.910065e-01 4.539905e-01 2.068658e-04
    outer loop
      vertex   -9.345929e+00 2.270500e+01 6.651281e+00
      vertex   -9.396702e+00 2.260636e+01 4.450000e+00
      vertex   -9.400577e+00 2.259775e+01 6.651281e+00
    endloop
  endfacet
  facet normal -9.304705e-01 3.663668e-01 -2.052674e-04
    outer loop
      vertex   -9.400577e+00 2.259775e+01 6.651281e+00
      vertex   -9.396702e+00 2.260636e+01 4.450000e+00
      vertex   -9.440489e+00 2.249515e+01 4.450000e+00
    endloop
  endfacet
  facet normal -9.335804e-01 3.583679e-01 2.239279e-04
    outer loop
      vertex   -9.400577e+00 2.259775e+01 6.651281e+00
      vertex   -9.440489e+00 2.249515e+01 4.450000e+00
      vertex   -9.443715e+00 2.248537e+01 6.651281e+00
    endloop
  endfacet
  facet normal -9.634694e-01 2.678182e-01 -2.221842e-04
    outer loop
      vertex   -9.443715e+00 2.248537e+01 6.651281e+00
      vertex   -9.440489e+00 2.249515e+01 4.450000e+00
      vertex   -9.472497e+00 2.238000e+01 4.450000e+00
    endloop
  endfacet
  facet normal -9.646590e-01 2.635015e-01 0.000000e+00
    outer loop
      vertex   -9.443715e+00 2.248537e+01 6.651281e+00
      vertex   -9.472497e+00 2.238000e+01 4.450000e+00
      vertex   -9.472497e+00 2.238000e+01 6.750000e+00
    endloop
  endfacet
  facet normal 0.000000e+00 0.000000e+00 -1.000000e+00
    outer loop
      vertex   -7.259511e+00 2.176485e+01 4.450000e+00
      vertex   -9.440489e+00 2.176485e+01 4.450000e+00
      vertex   -7.227503e+00 2.188000e+01 4.450000e+00
    endloop
  endfacet
  facet normal -0.000000e+00 0.000000e+00 -1.000000e+00
    outer loop
      vertex   -7.227503e+00 2.188000e+01 4.450000e+00
      vertex   -9.440489e+00 2.176485e+01 4.450000e+00
      vertex   -9.472497e+00 2.188000e+01 4.450000e+00
    endloop
  endfacet
  facet normal 0.000000e+00 0.000000e+00 -1.000000e+00
    outer loop
      vertex   -7.227503e+00 2.188000e+01 4.450000e+00
      vertex   -9.472497e+00 2.188000e+01 4.450000e+00
      vertex   -7.227503e+00 2.238000e+01 4.450000e+00
    endloop
  endfacet
  facet normal -0.000000e+00 0.000000e+00 -1.000000e+00
    outer loop
      vertex   -7.227503e+00 2.238000e+01 4.450000e+00
      vertex   -9.472497e+00 2.188000e+01 4.450000e+00
      vertex   -9.472497e+00 2.238000e+01 4.450000e+00
    endloop
  endfacet
  facet normal 0.000000e+00 0.000000e+00 -1.000000e+00
    outer loop
      vertex   -7.227503e+00 2.238000e+01 4.450000e+00
      vertex   -9.472497e+00 2.238000e+01 4.450000e+00
      vertex   -7.259511e+00 2.249515e+01 4.450000e+00
    endloop
  endfacet
  facet normal -0.000000e+00 0.000000e+00 -1.000000e+00
    outer loop
      vertex   -7.259511e+00 2.249515e+01 4.450000e+00
      vertex   -9.472497e+00 2.238000e+01 4.450000e+00
      vertex   -9.440489e+00 2.249515e+01 4.450000e+00
    endloop
  endfacet
  facet normal 0.000000e+00 0.000000e+00 -1.000000e+00
    outer loop
      vertex   -7.259511e+00 2.249515e+01 4.450000e+00
      vertex   -9.440489e+00 2.249515e+01 4.450000e+00
      vertex   -7.303298e+00 2.260636e+01 4.450000e+00
    endloop
  endfacet
  facet normal -0.000000e+00 0.000000e+00 -1.000000e+00
    outer loop
      vertex   -7.303298e+00 2.260636e+01 4.450000e+00
      vertex   -9.440489e+00 2.249515e+01 4.450000e+00
      vertex   -9.396702e+00 2.260636e+01 4.450000e+00
    endloop
  endfacet
  facet normal 0.000000e+00 0.000000e+00 -1.000000e+00
    outer loop
      vertex   -7.303298e+00 2.260636e+01 4.450000e+00
      vertex   -9.396702e+00 2.260636e+01 4.450000e+00
      vertex   -7.358390e+00 2.271242e+01 4.450000e+00
    endloop
  endfacet
  facet normal -0.000000e+00 0.000000e+00 -1.000000e+00
    outer loop
      vertex   -7.358390e+00 2.271242e+01 4.450000e+00
      vertex   -9.396702e+00 2.260636e+01 4.450000e+00
      vertex   -9.341610e+00 2.271242e+01 4.450000e+00
    endloop
  endfacet
  facet normal 0.000000e+00 0.000000e+00 -1.000000e+00
    outer loop
      vertex   -7.358390e+00 2.271242e+01 4.450000e+00
      vertex   -9.341610e+00 2.271242e+01 4.450000e+00
      vertex   -7.424191e+00 2.281219e+01 4.450000e+00
    endloop
  endfacet
  facet normal 0.000000e+00 0.000000e+00 -1.000000e+00
    outer loop
      vertex   -7.424191e+00 2.281219e+01 4.450000e+00
      vertex   -9.341610e+00 2.271242e+01 4.450000e+00
      vertex   -9.275809e+00 2.281219e+01 4.450000e+00
    endloop
  endfacet
  facet normal -0.000000e+00 0.000000e+00 -1.000000e+00
    outer loop
      vertex   -7.424191e+00 2.281219e+01 4.450000e+00
      vertex   -9.275809e+00 2.281219e+01 4.450000e+00
      vertex   -7.499993e+00 2.290459e+01 4.450000e+00
    endloop
  endfacet
  facet normal -0.000000e+00 0.000000e+00 -1.000000e+00
    outer loop
      vertex   -7.499993e+00 2.290459e+01 4.450000e+00
      vertex   -9.275809e+00 2.281219e+01 4.450000e+00
      vertex   -9.200007e+00 2.290459e+01 4.450000e+00
    endloop
  endfacet
  facet normal 0.000000e+00 0.000000e+00 -1.000000e+00
    outer loop
      vertex   -7.499993e+00 2.290459e+01 4.450000e+00
      vertex   -9.200007e+00 2.290459e+01 4.450000e+00
      vertex   -7.584975e+00 2.298862e+01 4.450000e+00
    endloop
  endfacet
  facet normal -0.000000e+00 0.000000e+00 -1.000000e+00
    outer loop
      vertex   -7.584975e+00 2.298862e+01 4.450000e+00
      vertex   -9.200007e+00 2.290459e+01 4.450000e+00
      vertex   -9.115025e+00 2.298862e+01 4.450000e+00
    endloop
  endfacet
  facet normal 0.000000e+00 0.000000e+00 -1.000000e+00
    outer loop
      vertex   -7.584975e+00 2.298862e+01 4.450000e+00
      vertex   -9.115025e+00 2.298862e+01 4.450000e+00
      vertex   -7.678220e+00 2.306339e+01 4.450000e+00
    endloop
  endfacet
  facet normal -0.000000e+00 0.000000e+00 -1.000000e+00
    outer loop
      vertex   -7.678220e+00 2.306339e+01 4.450000e+00
      vertex   -9.115025e+00 2.298862e+01 4.450000e+00
      vertex   -9.021780e+00 2.306339e+01 4.450000e+00
    endloop
  endfacet
  facet normal 0.000000e+00 0.000000e+00 -1.000000e+00
    outer loop
      vertex   -7.678220e+00 2.306339e+01 4.450000e+00
      vertex   -9.021780e+00 2.306339e+01 4.450000e+00
      vertex   -7.778720e+00 2.312807e+01 4.450000e+00
    endloop
  endfacet
  facet normal -0.000000e+00 0.000000e+00 -1.000000e+00
    outer loop
      vertex   -7.778720e+00 2.312807e+01 4.450000e+00
      vertex   -9.021780e+00 2.306339e+01 4.450000e+00
      vertex   -8.921280e+00 2.312807e+01 4.450000e+00
    endloop
  endfacet
  facet normal 0.000000e+00 0.000000e+00 -1.000000e+00
    outer loop
      vertex   -7.778720e+00 2.312807e+01 4.450000e+00
      vertex   -8.921280e+00 2.312807e+01 4.450000e+00
      vertex   -7.885391e+00 2.318197e+01 4.450000e+00
    endloop
  endfacet
  facet normal -0.000000e+00 0.000000e+00 -1.000000e+00
    outer loop
      vertex   -7.885391e+00 2.318197e+01 4.450000e+00
      vertex   -8.921280e+00 2.312807e+01 4.450000e+00
      vertex   -8.814609e+00 2.318197e+01 4.450000e+00
    endloop
  endfacet
  facet normal 0.000000e+00 0.000000e+00 -1.000000e+00
    outer loop
      vertex   -7.885391e+00 2.318197e+01 4.450000e+00
      vertex   -8.814609e+00 2.318197e+01 4.450000e+00
      vertex   -7.997080e+00 2.322451e+01 4.450000e+00
    endloop
  endfacet
  facet normal -0.000000e+00 0.000000e+00 -1.000000e+00
    outer loop
      vertex   -7.997080e+00 2.322451e+01 4.450000e+00
      vertex   -8.814609e+00 2.318197e+01 4.450000e+00
      vertex   -8.702920e+00 2.322451e+01 4.450000e+00
    endloop
  endfacet
  facet normal 0.000000e+00 0.000000e+00 -1.000000e+00
    outer loop
      vertex   -7.997080e+00 2.322451e+01 4.450000e+00
      vertex   -8.702920e+00 2.322451e+01 4.450000e+00
      vertex   -8.112581e+00 2.325523e+01 4.450000e+00
    endloop
  endfacet
  facet normal -0.000000e+00 0.000000e+00 -1.000000e+00
    outer loop
      vertex   -8.112581e+00 2.325523e+01 4.450000e+00
      vertex   -8.702920e+00 2.322451e+01 4.450000e+00
      vertex   -8.587419e+00 2.325523e+01 4.450000e+00
    endloop
  endfacet
  facet normal 0.000000e+00 0.000000e+00 -1.000000e+00
    outer loop
      vertex   -8.112581e+00 2.325523e+01 4.450000e+00
      vertex   -8.587419e+00 2.325523e+01 4.450000e+00
      vertex   -8.230646e+00 2.327379e+01 4.450000e+00
    endloop
  endfacet
  facet normal -0.000000e+00 0.000000e+00 -1.000000e+00
    outer loop
      vertex   -8.230646e+00 2.327379e+01 4.450000e+00
      vertex   -8.587419e+00 2.325523e+01 4.450000e+00
      vertex   -8.469354e+00 2.327379e+01 4.450000e+00
    endloop
  endfacet
  facet normal 0.000000e+00 0.000000e+00 -1.000000e+00
    outer loop
      vertex   -8.230646e+00 2.327379e+01 4.450000e+00
      vertex   -8.469354e+00 2.327379e+01 4.450000e+00
      vertex   -8.350000e+00 2.328000e+01 4.450000e+00
    endloop
  endfacet
  facet normal 0.000000e+00 0.000000e+00 -1.000000e+00
    outer loop
      vertex   -9.440489e+00 2.176485e+01 4.450000e+00
      vertex   -7.259511e+00 2.176485e+01 4.450000e+00
      vertex   -9.396702e+00 2.165364e+01 4.450000e+00
    endloop
  endfacet
  facet normal 0.000000e+00 0.000000e+00 -1.000000e+00
    outer loop
      vertex   -9.396702e+00 2.165364e+01 4.450000e+00
      vertex   -7.259511e+00 2.176485e+01 4.450000e+00
      vertex   -7.303298e+00 2.165364e+01 4.450000e+00
    endloop
  endfacet
  facet normal 0.000000e+00 0.000000e+00 -1.000000e+00
    outer loop
      vertex   -9.396702e+00 2.165364e+01 4.450000e+00
      vertex   -7.303298e+00 2.165364e+01 4.450000e+00
      vertex   -9.341610e+00 2.154758e+01 4.450000e+00
    endloop
  endfacet
  facet normal 0.000000e+00 0.000000e+00 -1.000000e+00
    outer loop
      vertex   -9.341610e+00 2.154758e+01 4.450000e+00
      vertex   -7.303298e+00 2.165364e+01 4.450000e+00
      vertex   -7.358390e+00 2.154758e+01 4.450000e+00
    endloop
  endfacet
  facet normal 0.000000e+00 0.000000e+00 -1.000000e+00
    outer loop
      vertex   -9.341610e+00 2.154758e+01 4.450000e+00
      vertex   -7.358390e+00 2.154758e+01 4.450000e+00
      vertex   -9.275809e+00 2.144781e+01 4.450000e+00
    endloop
  endfacet
  facet normal 0.000000e+00 0.000000e+00 -1.000000e+00
    outer loop
      vertex   -9.275809e+00 2.144781e+01 4.450000e+00
      vertex   -7.358390e+00 2.154758e+01 4.450000e+00
      vertex   -7.424191e+00 2.144781e+01 4.450000e+00
    endloop
  endfacet
  facet normal 0.000000e+00 0.000000e+00 -1.000000e+00
    outer loop
      vertex   -9.275809e+00 2.144781e+01 4.450000e+00
      vertex   -7.424191e+00 2.144781e+01 4.450000e+00
      vertex   -9.200007e+00 2.135541e+01 4.450000e+00
    endloop
  endfacet
  facet normal 0.000000e+00 0.000000e+00 -1.000000e+00
    outer loop
      vertex   -9.200007e+00 2.135541e+01 4.450000e+00
      vertex   -7.424191e+00 2.144781e+01 4.450000e+00
      vertex   -7.499993e+00 2.135541e+01 4.450000e+00
    endloop
  endfacet
  facet normal 0.000000e+00 0.000000e+00 -1.000000e+00
    outer loop
      vertex   -9.200007e+00 2.135541e+01 4.450000e+00
      vertex   -7.499993e+00 2.135541e+01 4.450000e+00
      vertex   -9.115025e+00 2.127138e+01 4.450000e+00
    endloop
  endfacet
  facet normal 0.000000e+00 0.000000e+00 -1.000000e+00
    outer loop
      vertex   -9.115025e+00 2.127138e+01 4.450000e+00
      vertex   -7.499993e+00 2.135541e+01 4.450000e+00
      vertex   -7.584975e+00 2.127138e+01 4.450000e+00
    endloop
  endfacet
  facet normal 0.000000e+00 0.000000e+00 -1.000000e+00
    outer loop
      vertex   -9.115025e+00 2.127138e+01 4.450000e+00
      vertex   -7.584975e+00 2.127138e+01 4.450000e+00
      vertex   -9.021780e+00 2.119661e+01 4.450000e+00
    endloop
  endfacet
  facet normal 0.000000e+00 0.000000e+00 -1.000000e+00
    outer loop
      vertex   -9.021780e+00 2.119661e+01 4.450000e+00
      vertex   -7.584975e+00 2.127138e+01 4.450000e+00
      vertex   -7.678220e+00 2.119661e+01 4.450000e+00
    endloop
  endfacet
  facet normal 0.000000e+00 0.000000e+00 -1.000000e+00
    outer loop
      vertex   -9.021780e+00 2.119661e+01 4.450000e+00
      vertex   -7.678220e+00 2.119661e+01 4.450000e+00
      vertex   -8.921280e+00 2.113193e+01 4.450000e+00
    endloop
  endfacet
  facet normal 0.000000e+00 0.000000e+00 -1.000000e+00
    outer loop
      vertex   -8.921280e+00 2.113193e+01 4.450000e+00
      vertex   -7.678220e+00 2.119661e+01 4.450000e+00
      vertex   -7.778720e+00 2.113193e+01 4.450000e+00
    endloop
  endfacet
  facet normal 0.000000e+00 0.000000e+00 -1.000000e+00
    outer loop
      vertex   -8.921280e+00 2.113193e+01 4.450000e+00
      vertex   -7.778720e+00 2.113193e+01 4.450000e+00
      vertex   -8.814609e+00 2.107803e+01 4.450000e+00
    endloop
  endfacet
  facet normal 0.000000e+00 0.000000e+00 -1.000000e+00
    outer loop
      vertex   -8.814609e+00 2.107803e+01 4.450000e+00
      vertex   -7.778720e+00 2.113193e+01 4.450000e+00
      vertex   -7.885391e+00 2.107803e+01 4.450000e+00
    endloop
  endfacet
  facet normal 0.000000e+00 0.000000e+00 -1.000000e+00
    outer loop
      vertex   -8.814609e+00 2.107803e+01 4.450000e+00
      vertex   -7.885391e+00 2.107803e+01 4.450000e+00
      vertex   -8.702920e+00 2.103549e+01 4.450000e+00
    endloop
  endfacet
  facet normal 0.000000e+00 0.000000e+00 -1.000000e+00
    outer loop
      vertex   -8.702920e+00 2.103549e+01 4.450000e+00
      vertex   -7.885391e+00 2.107803e+01 4.450000e+00
      vertex   -7.997080e+00 2.103549e+01 4.450000e+00
    endloop
  endfacet
  facet normal 0.000000e+00 0.000000e+00 -1.000000e+00
    outer loop
      vertex   -8.702920e+00 2.103549e+01 4.450000e+00
      vertex   -7.997080e+00 2.103549e+01 4.450000e+00
      vertex   -8.587419e+00 2.100477e+01 4.450000e+00
    endloop
  endfacet
  facet normal 0.000000e+00 0.000000e+00 -1.000000e+00
    outer loop
      vertex   -8.587419e+00 2.100477e+01 4.450000e+00
      vertex   -7.997080e+00 2.103549e+01 4.450000e+00
      vertex   -8.112581e+00 2.100477e+01 4.450000e+00
    endloop
  endfacet
  facet normal 0.000000e+00 0.000000e+00 -1.000000e+00
    outer loop
      vertex   -8.587419e+00 2.100477e+01 4.450000e+00
      vertex   -8.112581e+00 2.100477e+01 4.450000e+00
      vertex   -8.469354e+00 2.098621e+01 4.450000e+00
    endloop
  endfacet
  facet normal 0.000000e+00 0.000000e+00 -1.000000e+00
    outer loop
      vertex   -8.469354e+00 2.098621e+01 4.450000e+00
      vertex   -8.112581e+00 2.100477e+01 4.450000e+00
      vertex   -8.230646e+00 2.098621e+01 4.450000e+00
    endloop
  endfacet
  facet normal 0.000000e+00 0.000000e+00 -1.000000e+00
    outer loop
      vertex   -8.469354e+00 2.098621e+01 4.450000e+00
      vertex   -8.230646e+00 2.098621e+01 4.450000e+00
      vertex   -8.350000e+00 2.098000e+01 4.450000e+00
    endloop
  endfacet
  facet normal 0.000000e+00 0.000000e+00 -1.000000e+00
    outer loop
      vertex   -9.472497e+00 2.188000e+01 4.450000e+00
      vertex   -9.850000e+00 2.188000e+01 4.450000e+00
      vertex   -9.472497e+00 2.238000e+01 4.450000e+00
    endloop
  endfacet
  facet normal -0.000000e+00 0.000000e+00 -1.000000e+00
    outer loop
      vertex   -9.472497e+00 2.238000e+01 4.450000e+00
      vertex   -9.850000e+00 2.188000e+01 4.450000e+00
      vertex   -9.850000e+00 2.238000e+01 4.450000e+00
    endloop
  endfacet
  facet normal 0.000000e+00 0.000000e+00 -1.000000e+00
    outer loop
      vertex   -7.227503e+00 2.238000e+01 4.450000e+00
      vertex   -6.850000e+00 2.238000e+01 4.450000e+00
      vertex   -7.227503e+00 2.188000e+01 4.450000e+00
    endloop
  endfacet
  facet normal 0.000000e+00 0.000000e+00 -1.000000e+00
    outer loop
      vertex   -7.227503e+00 2.188000e+01 4.450000e+00
      vertex   -6.850000e+00 2.238000e+01 4.450000e+00
      vertex   -6.850000e+00 2.188000e+01 4.450000e+00
    endloop
  endfacet
endsolid
